<?xml version="1.0" encoding="UTF-8" standalone="no"?>
<!-- Generator: Adobe Illustrator 22.1.0, SVG Export Plug-In . SVG Version: 6.00 Build 0)  -->

<svg
   version="1.1"
   id="Layer_1"
   x="0px"
   y="0px"
   viewBox="0 0 470 310"
   style="enable-background:new 0 0 470 310;"
   xml:space="preserve"
   sodipodi:docname="Colt_logo.svg"
   inkscape:version="1.2.2 (b0a84865, 2022-12-01)"
   xmlns:inkscape="http://www.inkscape.org/namespaces/inkscape"
   xmlns:sodipodi="http://sodipodi.sourceforge.net/DTD/sodipodi-0.dtd"
   xmlns="http://www.w3.org/2000/svg"
   xmlns:svg="http://www.w3.org/2000/svg"><defs
   id="defs22427" /><sodipodi:namedview
   id="namedview22425"
   pagecolor="#ffffff"
   bordercolor="#000000"
   borderopacity="0.25"
   inkscape:showpageshadow="2"
   inkscape:pageopacity="0.0"
   inkscape:pagecheckerboard="0"
   inkscape:deskcolor="#d1d1d1"
   showgrid="false"
   inkscape:zoom="2.6510638"
   inkscape:cx="235.1886"
   inkscape:cy="155.22071"
   inkscape:window-width="1390"
   inkscape:window-height="1205"
   inkscape:window-x="236"
   inkscape:window-y="50"
   inkscape:window-maximized="0"
   inkscape:current-layer="Layer_1" />
<polygon
   points="298.9,174.4 298.9,79.9 255,79.9 255,214.9 350.6,214.9 350.6,174.4 "
   id="polygon22412"
   style="fill:#f9f9f9" />
<polygon
   points="457.6,79.9 332.4,79.9 332.4,120.4 373.1,120.4 373.1,214.9 417,214.9 417,120.4 457.6,120.4 "
   id="polygon22414"
   style="fill:#f9f9f9" />
<path
   d="M337.1,57.4c0,0-18,15.2-56.8,15.2c-55.1,0-68.6-31.5-141.8-31.5C102,41.1,66,74.8,66,127.1c0,37.1,28.1,138.4,197.4,138.4  c65.2,0,132.8-33.2,132.8-33.2s-55.7,74.8-173.2,74.8C94.7,307.1,3.5,236.8,3.5,136.7S84,4.5,130.7,4.5s55.1,12.4,88.3,12.4  c21.4,0,45-14.1,45-14.1S277.5,33.2,337.1,57.4z"
   id="path22416"
   style="fill:#f9f9f9" />
<path
   d="M449.1,180.6c-9.5,0-18,6.6-18,17.9c0,11.3,8.5,17.9,18,17.9c9.4,0,17.9-6.6,17.9-17.9C467,187.2,458.5,180.6,449.1,180.6z   M449.1,212.2L449.1,212.2c-7.1,0-12.8-5.5-12.8-13.7c0-8.2,5.7-13.7,12.8-13.7c6.9,0,12.8,5.5,12.8,13.7  C461.8,206.7,456,212.2,449.1,212.2z"
   id="path22418"
   style="fill:#f9f9f9" />
<path
   d="M176.2,74.7c-39.5,0-71.6,32.1-71.6,71.6s32.1,71.6,71.6,71.6s71.6-32.1,71.6-71.6S215.8,74.7,176.2,74.7z M176.2,175.7  c-16.3,0-29.4-13.2-29.4-29.4c0-16.3,13.2-29.4,29.4-29.4c16.3,0,29.4,13.2,29.4,29.4C205.7,162.5,192.5,175.7,176.2,175.7z"
   id="path22420"
   style="fill:#f9f9f9" />
<path
   d="M452.4,199.7c2.6-0.2,4.6-1.5,4.6-5c0-4.4-2.9-5.8-7.9-5.8H442v19.2h4.1V200h1.9l4.4,8.1h4.9L452.4,199.7z M449.7,196.7  h-3.6v-4.6h2.9c1.6,0,3.7,0.1,3.7,2.1C452.7,196.4,451.6,196.7,449.7,196.7z"
   id="path22422"
   style="fill:#f9f9f9" />
</svg>
