<?xml version="1.0" encoding="UTF-8" standalone="no"?>
<!-- Generator: Adobe Illustrator 19.1.0, SVG Export Plug-In . SVG Version: 6.00 Build 0)  -->

<svg
   version="1.1"
   id="Layer_1"
   x="0px"
   y="0px"
   viewBox="0 0 1508 691.8"
   style="enable-background:new 0 0 1508 691.8;"
   xml:space="preserve"
   sodipodi:docname="Daniel_Defense_Logo.svg"
   inkscape:version="1.2.2 (b0a84865, 2022-12-01)"
   xmlns:inkscape="http://www.inkscape.org/namespaces/inkscape"
   xmlns:sodipodi="http://sodipodi.sourceforge.net/DTD/sodipodi-0.dtd"
   xmlns="http://www.w3.org/2000/svg"
   xmlns:svg="http://www.w3.org/2000/svg"><defs
   id="defs22587" /><sodipodi:namedview
   id="namedview22585"
   pagecolor="#ffffff"
   bordercolor="#000000"
   borderopacity="0.25"
   inkscape:showpageshadow="2"
   inkscape:pageopacity="0.0"
   inkscape:pagecheckerboard="0"
   inkscape:deskcolor="#d1d1d1"
   showgrid="false"
   inkscape:zoom="0.82625995"
   inkscape:cx="754.60514"
   inkscape:cy="346.74318"
   inkscape:window-width="1390"
   inkscape:window-height="1205"
   inkscape:window-x="0"
   inkscape:window-y="25"
   inkscape:window-maximized="0"
   inkscape:current-layer="Layer_1" />
<style
   type="text/css"
   id="style22546">
	.st0{fill:#231F20;}
	.st1{fill:#FFC425;}
</style>
<g
   id="g22566"
   style="fill:#f9f9f9">
	<path
   d="M729.3,358.7h-5.2c-7.4,0-14-2.1-19.8-6.3c-5.8-4.2-8.6-12.4-8.6-24.4V194.8l148,174.3h5.5V194.8c0-9.9,0.9-16.9,2.7-20.9   c1.8-4.1,4.2-7,7.4-8.8c3.2-1.8,9.4-3.3,18.6-4.4V155h-72.3v5.7c12.2-0.2,20.8,2.7,26,8.6c3.8,4.4,5.6,12.9,5.6,25.5v90L729.3,155   h-77.6v5.7c6.7,0.2,11.8,1.2,15.3,2.9c3.5,1.8,7.6,5.4,12.3,11l4.7,5.6v147.8c0,11.1-2.4,19-7.1,23.6c-4.7,4.6-13.1,7-25.2,7.1v5.7   h77.6V358.7z"
   id="path22548"
   style="fill:#f9f9f9" />
	<path
   d="M1010.1,358.7h-7.3c-6.1,0-11-1-14.6-3c-3.6-2-6-4.3-7.3-7c-1.2-2.7-1.9-9.4-1.9-20.1V190.8c0-10.5,0.6-17,1.8-19.5   c1.6-3.5,3.8-6,6.6-7.4c3.9-2.2,9-3.2,15.3-3.2h7.3V155H895.6v5.7h7.3c6.1,0,11,1,14.6,3c3.6,2,6,4.4,7.2,7   c1.2,2.7,1.8,9.4,1.8,20.1v137.7c0,10.5-0.6,17-1.8,19.5c-1.5,3.5-3.7,6-6.5,7.4c-3.9,2.2-9,3.2-15.3,3.2h-7.3v5.7h114.4V358.7z"
   id="path22550"
   style="fill:#f9f9f9" />
	<path
   d="M1226.6,297.8h-6c-5.4,18.5-14.2,32.3-26.5,41.4c-12.3,9.1-28.7,13.6-49.1,13.6h-13.1c-6.2,0-10.8-0.8-13.6-2.5   c-2.8-1.6-4.7-3.8-5.7-6.3c-1-2.6-1.5-9.6-1.5-21.2v-59c10.4,0,18.4,1.3,23.9,3.9c5.5,2.6,10.3,7.7,14.4,15.4   c4.1,7.6,6.9,17.4,8.2,29.3h6.1V202.9h-6.1c-1.7,16.3-5.7,28.6-11.9,36.9c-6.2,8.3-16.3,12.5-30.2,12.5h-4.4V167h22.6   c16.6,0,27.9,0.9,33.9,2.8c10.3,3.1,18.3,7.9,24,14.5c5.6,6.6,10,17.4,13.2,32.6h6.1V155h-183.2v5.7h7.3c7.1,0,12.7,1.4,16.8,4.3   c2.9,2,4.9,4.7,6,8.3c0.5,2.2,0.8,8,0.8,17.4v137.7c0,10.5-0.6,17-1.8,19.5c-1.5,3.5-3.7,6-6.5,7.4c-3.9,2.2-9,3.2-15.3,3.2h-7.3   v5.7h189.2L1226.6,297.8z"
   id="path22552"
   style="fill:#f9f9f9" />
	<path
   d="M1453.4,290.9h-6.6c-5.1,16.5-10.4,28.9-16.1,37.4c-5.6,8.4-12.3,14.6-20.1,18.5c-7.7,3.9-17.4,5.9-29.1,5.9h-18.2   c-10.3,0-16.8-0.5-19.5-1.4c-3.8-1.4-6.3-3.6-7.6-6.6c-1.3-2.9-1.9-9.8-1.9-20.5V190.8c0-10.5,0.6-17,1.8-19.5   c1.6-3.5,3.8-6,6.6-7.4c3.9-2.2,9-3.2,15.3-3.2h9.5V155h-116.7v5.7h7.3c6.1,0,11,1,14.6,3c3.6,2,6,4.4,7.2,7   c1.2,2.7,1.8,9.4,1.8,20.1v137.7c0,10.5-0.6,17-1.8,19.5c-1.5,3.5-3.7,6-6.5,7.4c-3.9,2.2-9,3.2-15.3,3.2h-7.3v5.7h194.3   L1453.4,290.9z"
   id="path22554"
   style="fill:#f9f9f9" />
	<path
   d="M513.8,521.5c-5.4,18.5-14.2,32.3-26.6,41.4c-12.3,9.1-28.7,13.6-49.1,13.6H425c-6.2,0-10.8-0.8-13.6-2.5   c-2.8-1.6-4.7-3.8-5.7-6.3c-1-2.6-1.5-9.6-1.5-21.2v-59c10.4,0,18.4,1.3,23.9,3.9c5.5,2.6,10.3,7.7,14.4,15.4   c4.1,7.6,6.9,17.4,8.2,29.3h6.1V426.5h-6.1c-1.7,16.3-5.7,28.6-11.9,36.9c-6.2,8.3-16.3,12.5-30.2,12.5h-4.4v-85.2h22.6   c16.6,0,27.9,0.9,33.9,2.8c10.3,3.1,18.3,7.9,24,14.5c5.6,6.6,10,17.4,13.2,32.6h6.1v-61.9H382.2c-1.2-10.1-3.1-19.9-5.7-29.3   c26.6-9.5,48.7-23.5,66.3-42c6.8-7.2,12.9-14.8,18.3-22.8l-15.5,33.1c-7.4,16-13.7,26.5-18.7,31.6c-5.1,5.1-11.5,8.2-19.4,9.3v5.7   h72.8v-5.7c-11.4-0.8-18.6-2.1-21.5-3.7c-4.9-2.8-7.4-7.1-7.4-13c0-4.4,1.5-10,4.5-16.8l9.2-20.4h77.3l11.6,26.1   c3,6.8,4.6,10.7,4.8,11.6c0.6,2,1,3.9,1,5.7c0,3.1-1.2,5.5-3.5,7.1c-3.4,2.3-9.4,3.4-17.9,3.4h-4.4v5.7H640v-5.7   c-6.7-0.5-11.8-2.4-15.5-5.6c-4.8-4.2-11-14.5-18.6-30.7L527,150.7h-3.1L483.5,237c5.1-17.6,7.7-36.5,7.7-56.7   c0-37.8-9-71.1-27.1-100c-18.1-28.8-41.9-49.4-71.6-61.8C362.8,6.2,319.5,0,262.6,0H107.5v9.9h14.3c14.4,0,25.3,3.9,32.6,11.8   c5.2,5.7,7.9,20,7.9,42.7v159.2c-2.4,0-4.8,0-7.2,0H0v9.9h14.3c14.4,0,25.3,3.9,32.6,11.8c5.2,5.7,7.9,20,7.9,42.7v235.4   c0,20.6-2.1,33.9-6.2,39.8c-6.7,9.9-18.2,14.8-34.3,14.8H0v9.9h170.2c74,0,129-19,165.2-57c6-6.3,11.3-12.9,16.2-19.7v40.9   c0,10.5-0.6,17-1.8,19.5c-1.5,3.5-3.7,6-6.5,7.4c-3.9,2.2-9,3.2-15.3,3.2h-7.3v5.7h189.2l9.8-66.5H513.8z M504.4,221.2l32.6,72.1   h-66.2L504.4,221.2z M216.2,251.1c23.1,7,43.3,19.1,60.5,36.5c15.1,15.3,26.1,33.5,33.3,54.7c-10.8,2.2-22,3.3-33.9,3.3   c-16.1,0-36.1-2.5-59.8-7.5V251.1z M108.7,251.9c19.9-4.8,37.7-7.3,53.6-7.7v55.7c0,20.6-2.1,33.9-6.2,39.8   c-6.7,9.9-18.2,14.8-34.3,14.8h-13.1V251.9z M276.7,525.4c-28.7,29.2-64.7,43.8-108.1,43.8c-16.1,0-36.1-2.5-59.8-7.5V364.4h169   c13.2,0,25.7-0.6,37.7-1.8c2.8,13.7,4.2,28.4,4.2,44.1C319.7,456.6,305.3,496.2,276.7,525.4z M356.6,304   c-18.1-28.8-41.9-49.4-71.6-61.8c-17.9-7.5-40.9-12.7-68.8-15.6V28.2c21.5-5.2,40.7-7.8,57.6-7.8c44.9,0,81.7,14.5,110.4,43.5   c28.7,29,43,68.7,43,119c0,50-14.3,89.6-43,118.8c-6.1,6.3-12.7,11.8-19.5,16.7C362.2,313.6,359.5,308.7,356.6,304z"
   id="path22556"
   style="fill:#f9f9f9" />
	<path
   d="M888.6,521.5c-5.4,18.5-14.2,32.3-26.5,41.4c-12.3,9.1-28.7,13.6-49.1,13.6h-13.1c-6.2,0-10.8-0.8-13.6-2.5   c-2.8-1.6-4.7-3.8-5.7-6.3c-1-2.6-1.5-9.6-1.5-21.2v-59c10.4,0,18.4,1.3,23.9,3.9c5.5,2.6,10.3,7.7,14.4,15.4   c4.1,7.6,6.9,17.4,8.2,29.3h6.1V426.5h-6.1c-1.7,16.3-5.7,28.6-11.9,36.9c-6.2,8.3-16.3,12.5-30.2,12.5H779v-85.2h22.6   c16.6,0,27.9,0.9,33.9,2.8c10.3,3.1,18.3,7.9,24,14.5c5.6,6.6,10,17.4,13.2,32.6h6.1v-61.9H702.9h-7.3H518.2v5.7h7.3   c6.1,0,11,1,14.6,3c3.6,2,6,4.3,7.2,7c1.2,2.7,1.8,9.4,1.8,20.1v137.7c0,10.5-0.6,17-1.8,19.5c-1.5,3.5-3.7,6-6.5,7.4   c-3.9,2.2-9,3.2-15.3,3.2h-7.3v5.7h114.4v-5.7h-7.3c-6.1,0-11-1-14.6-3c-3.6-2-6-4.3-7.3-7c-1.2-2.7-1.9-9.4-1.9-20.1v-64.1h6.3   c11.5,0,21.8,3.2,30.9,9.5c9.1,6.3,14.7,19.4,16.7,39.3h5.7V431.8h-5.7c-1.3,11.2-4.1,20.1-8.3,26.7c-4.3,6.6-9.4,11.3-15.6,14.1   c-6.1,2.8-14,4.2-23.7,4.2h-6.3v-86H622c17.4,0,29.4,0.8,35.8,2.3c11.7,2.8,20.7,7.6,26.9,14.4c6.2,6.8,10,17.2,11.5,31.3h6.6   v-54.3c7.1,0,12.6,1.5,16.7,4.3c2.9,2,4.9,4.7,6,8.3c0.5,2.2,0.8,8,0.8,17.4v137.7c0,10.5-0.6,17-1.8,19.5c-1.5,3.5-3.7,6-6.5,7.4   c-3.9,2.2-9,3.2-15.3,3.2h-7.3v5.7h189.2l9.8-66.5H888.6z"
   id="path22558"
   style="fill:#f9f9f9" />
	<path
   d="M1044.3,384.4c12.2-0.2,20.8,2.7,26,8.6c3.8,4.4,5.6,12.9,5.6,25.5v90l-108-129.9h-77.6v5.7c6.7,0.2,11.8,1.2,15.3,2.9   c3.6,1.8,7.6,5.4,12.3,11l4.7,5.6v147.8c0,11.1-2.4,19-7.1,23.6c-4.7,4.6-13.1,7-25.2,7.1v5.7h77.6v-5.7h-5.2   c-7.4,0-14-2.1-19.8-6.3c-5.8-4.2-8.6-12.4-8.6-24.4V418.5l148,174.3h5.5V418.5c0-9.9,0.9-16.9,2.7-20.9c1.8-4.1,4.3-7,7.4-8.8   c3.2-1.8,9.4-3.3,18.6-4.4v-5.7h-72.3V384.4z"
   id="path22560"
   style="fill:#f9f9f9" />
	<path
   d="M1257.9,492.2c-8.9-10.7-26.2-22.1-51.8-34.1c-18.3-8.6-30-14.7-35-18.1c-6.9-4.7-11.9-9.5-15-14.4   c-2.3-3.6-3.4-7.7-3.4-12.4c0-7.3,3.2-13.8,9.6-19.4c6.4-5.6,15.1-8.4,26.1-8.4c14.2,0,27.4,5.3,39.6,16   c12.2,10.7,19.9,24.7,23,42.2h6.6l-1.8-69.8h-4.8c-1.4,6.3-2.9,10.2-4.5,11.9c-1.6,1.6-3.8,2.5-6.6,2.5c-2.9,0-8-1.7-15.3-5   c-7.3-3.3-13.4-5.6-18.5-6.9c-6.7-1.6-13.6-2.5-20.7-2.5c-19.5,0-35.6,5.9-48.4,17.6c-12.8,11.7-19.2,25.9-19.2,42.6   c0,9.8,2.3,18.7,7,26.9c4.7,8.1,11.4,15.5,20.1,22.1c8.7,6.6,23,14.6,42.9,23.9c14.2,6.7,24.1,12.1,29.7,16.3   c5.6,4.2,9.8,8.6,12.5,13.2c2.7,4.6,4.1,9.4,4.1,14.4c0,8.3-3.6,15.6-10.7,21.9c-7.2,6.3-16.8,9.4-28.8,9.4   c-15.6,0-30.2-5.8-43.7-17.5c-13.5-11.7-22.6-28.6-27.4-50.9h-6v79.1h6c1.9-4.2,4.5-7.4,7.6-9.4c3.1-2.1,6.1-3.1,8.9-3.1   c3.3,0,7.6,1,12.8,3.1c9.3,3.7,16.9,6.2,23.1,7.6c6.1,1.3,12.6,2,19.5,2c22,0,40.1-6.3,54.3-18.9c14.3-12.6,21.4-27.7,21.4-45.2   C1271.1,515.1,1266.7,502.9,1257.9,492.2z"
   id="path22562"
   style="fill:#f9f9f9" />
	<path
   d="M1460.2,521.5c-5.4,18.5-14.2,32.3-26.5,41.4c-12.3,9.1-28.7,13.6-49.1,13.6h-13.1c-6.2,0-10.8-0.8-13.6-2.5   c-2.8-1.6-4.7-3.8-5.7-6.3c-1-2.6-1.5-9.6-1.5-21.2v-59c10.4,0,18.4,1.3,23.9,3.9c5.5,2.6,10.3,7.7,14.4,15.4   c4.1,7.6,6.9,17.4,8.2,29.3h6.1V426.5h-6.1c-1.7,16.3-5.7,28.6-11.9,36.9c-6.2,8.3-16.3,12.5-30.2,12.5h-4.4v-85.2h22.6   c16.6,0,27.9,0.9,33.9,2.8c10.3,3.1,18.3,7.9,24,14.5c5.6,6.6,10,17.4,13.2,32.6h6.1v-61.9h-183.2v5.7h7.3c7.1,0,12.7,1.4,16.8,4.3   c2.9,2,4.9,4.7,6,8.3c0.5,2.2,0.8,8,0.8,17.4v137.7c0,10.5-0.6,17-1.8,19.5c-1.5,3.5-3.7,6-6.5,7.4c-3.9,2.2-9,3.2-15.3,3.2h-7.3   v5.7h189.2l9.8-66.5H1460.2z"
   id="path22564"
   style="fill:#f9f9f9" />
</g>
<g
   id="g22570"
   style="fill:#f9f9f9">
	<path
   class="st0"
   d="M1502.5,581.7c-3.7,3.7-8.2,5.6-13.4,5.6c-5.2,0-9.7-1.9-13.4-5.6c-3.7-3.7-5.5-8.2-5.5-13.4   c0-5.2,1.8-9.7,5.5-13.4c3.7-3.7,8.1-5.5,13.3-5.5c5.2,0,9.7,1.8,13.4,5.5c3.7,3.7,5.5,8.1,5.5,13.4   C1508,573.5,1506.2,578,1502.5,581.7z M1477.6,556.8c-3.2,3.2-4.7,7-4.7,11.5c0,4.5,1.6,8.4,4.7,11.6c3.2,3.2,7,4.8,11.5,4.8   c4.5,0,8.4-1.6,11.5-4.8c3.2-3.2,4.7-7.1,4.7-11.6c0-4.5-1.6-8.3-4.7-11.5c-3.2-3.2-7-4.8-11.5-4.8   C1484.6,552,1480.7,553.6,1477.6,556.8z M1488.7,557.9c2.6,0,4.5,0.2,5.7,0.7c2.1,0.9,3.2,2.7,3.2,5.3c0,1.9-0.7,3.2-2,4.1   c-0.7,0.5-1.7,0.8-3,1c1.6,0.3,2.8,0.9,3.6,2c0.8,1.1,1.1,2.2,1.1,3.2v1.5c0,0.5,0,1,0.1,1.5c0,0.5,0.1,0.9,0.2,1.1l0.1,0.3h-3.4   c0-0.1,0-0.1-0.1-0.2c0-0.1,0-0.1,0-0.2l-0.1-0.7v-1.6c0-2.4-0.7-4-2-4.8c-0.8-0.4-2.1-0.7-4.1-0.7h-2.9v8.2h-3.7v-20.8H1488.7z    M1492.6,561.1c-0.9-0.5-2.4-0.8-4.4-0.8h-3.1v7.5h3.3c1.6,0,2.7-0.2,3.5-0.5c1.4-0.6,2.1-1.6,2.1-3.2   C1494,562.7,1493.6,561.6,1492.6,561.1z"
   id="path22568"
   style="fill:#f9f9f9" />
</g>
<g
   id="g22576"
   style="fill:#f9f9f9">
	<polygon
   class="st1"
   points="27.3,626 46.7,657 25.8,689.9 40.2,689.9 59.6,657 41.6,626  "
   id="polygon22572"
   style="fill:#f9f9f9" />
	<polygon
   class="st1"
   points="1.5,626 21,657 0,689.9 14.5,689.9 33.8,657 15.8,626  "
   id="polygon22574"
   style="fill:#f9f9f9" />
</g>
<path
   class="st0"
   d="M1495.1,668.3c-0.8-0.4-2-0.7-3.7-0.7h-2.6v6.3h2.8c1.3,0,2.3-0.1,2.9-0.4c1.2-0.5,1.8-1.4,1.8-2.7  C1496.3,669.6,1495.9,668.8,1495.1,668.3 M1491.8,665.6c2.2,0,3.8,0.2,4.8,0.6c1.8,0.8,2.7,2.2,2.7,4.4c0,1.5-0.6,2.7-1.7,3.4  c-0.6,0.4-1.4,0.7-2.5,0.9c1.4,0.2,2.3,0.8,3,1.7c0.6,0.9,0.9,1.8,0.9,2.7v1.3c0,0.4,0,0.8,0,1.3c0,0.4,0.1,0.8,0.2,0.9l0.1,0.2  h-2.9c0-0.1,0-0.1,0-0.2c0-0.1,0-0.1,0-0.2l-0.1-0.5v-1.4c0-2-0.5-3.3-1.6-4c-0.6-0.4-1.8-0.6-3.4-0.6h-2.4v6.8h-3.1v-17.4H1491.8z   M1482.5,664.7c-2.7,2.7-4,5.9-4,9.6c0,3.8,1.3,7,4,9.7c2.7,2.7,5.9,4,9.6,4c3.8,0,7-1.3,9.6-4c2.7-2.7,4-5.9,4-9.7  c0-3.8-1.3-7-4-9.6c-2.7-2.7-5.9-4-9.6-4C1488.4,660.7,1485.2,662,1482.5,664.7 M1503.4,685.6c-3.1,3.1-6.8,4.7-11.2,4.7  c-4.4,0-8.1-1.5-11.2-4.7c-3.1-3.1-4.6-6.8-4.6-11.2c0-4.4,1.5-8.1,4.6-11.2c3.1-3.1,6.8-4.6,11.2-4.6c4.4,0,8.1,1.5,11.2,4.6  c3.1,3.1,4.6,6.8,4.6,11.2C1508,678.7,1506.5,682.5,1503.4,685.6"
   id="path22578"
   style="fill:#f9f9f9" />
<path
   class="st0"
   d="M64.7,679.1c-0.4-0.2-1-0.3-1.9-0.3h-1.3v3.2h1.4c0.7,0,1.1-0.1,1.5-0.2c0.6-0.2,0.9-0.7,0.9-1.4  C65.3,679.8,65.1,679.3,64.7,679.1 M63,677.8c1.1,0,1.9,0.1,2.4,0.3c0.9,0.4,1.4,1.1,1.4,2.2c0,0.8-0.3,1.4-0.9,1.7  c-0.3,0.2-0.7,0.3-1.3,0.4c0.7,0.1,1.2,0.4,1.5,0.9c0.3,0.5,0.5,0.9,0.5,1.4v0.6c0,0.2,0,0.4,0,0.7s0,0.4,0.1,0.5l0.1,0.1h-1.5  c0,0,0-0.1,0-0.1c0,0,0-0.1,0-0.1l0-0.3v-0.7c0-1-0.3-1.7-0.8-2c-0.3-0.2-0.9-0.3-1.7-0.3h-1.2v3.5H60v-8.8H63z M58.3,677.3  c-1.3,1.3-2,3-2,4.9c0,1.9,0.7,3.6,2,4.9c1.3,1.3,3,2,4.9,2c1.9,0,3.5-0.7,4.9-2c1.3-1.4,2-3,2-4.9c0-1.9-0.7-3.5-2-4.9  c-1.4-1.4-3-2-4.9-2C61.3,675.3,59.7,675.9,58.3,677.3 M68.9,687.9c-1.6,1.6-3.5,2.4-5.7,2.4c-2.2,0-4.1-0.8-5.7-2.4  c-1.6-1.6-2.3-3.5-2.3-5.7c0-2.2,0.8-4.1,2.3-5.7c1.6-1.6,3.4-2.3,5.7-2.3c2.2,0,4.1,0.8,5.7,2.3c1.6,1.6,2.3,3.5,2.3,5.7  S70.4,686.3,68.9,687.9"
   id="path22580"
   style="fill:#f9f9f9" />
<path
   d="M1451.6,690.2h13.7v-13.9h-13.7V690.2z M1427.3,690.2h13.7v-13.9h-13.7V690.2z M1403.1,690.2h13.7v-13.9h-13.7V690.2z   M1353.2,636.7h15c6.1,0,9.4,2.7,9.4,9c0,6.5-3.3,9.2-9.4,9.2h-15V636.7z M1339.5,690.2h13.7V665h13.7c6.9,0,9.4,3,10.4,9.8  c0.7,5.2,0.5,11.4,2.2,15.5h13.7c-2.4-3.6-2.3-11.2-2.6-15.3c-0.4-6.5-2.4-13.3-9.1-15.1v-0.2c6.9-2.9,9.8-8.6,9.8-16.2  c0-9.8-7-17.8-18.2-17.8h-33.5V690.2z M1282.3,690.2h47.2v-11.9H1296v-15.8h30.1v-11H1296v-13.8h32.8v-11.9h-46.5V690.2z   M1243.2,690.2h13.7v-52.6h18.6v-11.9h-51v11.9h18.6V690.2z M1187.9,690.2h13.7v-52.6h18.7v-11.9h-51v11.9h18.7V690.2z M1117,690.2  h47.2v-11.9h-33.5v-15.8h30.1v-11h-30.1v-13.8h32.8v-11.9H1117V690.2z M1069,636.7h12.8c4.9,0,9.4,1.3,9.4,7.4  c0,5.4-3.6,7.7-8.4,7.7H1069V636.7z M1055.3,690.2h30.1c11.2,0,21.9-5.6,21.9-18.7c0-8.1-3.8-14.1-11.4-16.4  c5.4-2.7,8.4-7.1,8.4-13.5c0-12-8-16-19.9-16h-29.3V690.2z M1069,661.5h14.9c5.8,0,9.8,2.6,9.8,9.2c0,6.7-4.7,8.5-10.1,8.5H1069  V661.5z M1006.1,690.2h13.7v-13.9h-13.7V690.2z M956.2,636.7h15c6.1,0,9.4,2.7,9.4,9c0,6.5-3.3,9.2-9.4,9.2h-15V636.7z M942.6,690.2  h13.7V665h13.7c6.9,0,9.4,3,10.4,9.8c0.7,5.2,0.5,11.4,2.2,15.5h13.7c-2.4-3.6-2.4-11.2-2.6-15.3c-0.4-6.5-2.3-13.3-9.1-15.1v-0.2  c6.9-2.9,9.8-8.6,9.8-16.2c0-9.8-7.1-17.8-18.2-17.8h-33.5V690.2z M885.3,690.2h47.2v-11.9H899v-15.8h30.1v-11H899v-13.8h32.8v-11.9  h-46.5V690.2z M865.1,690.2h8.7v-34.9h-26.1v10.6h13.8c-0.8,9-5.9,13.9-14.8,13.9c-12.3,0-16.9-10.9-16.9-21.6  c0-11.3,4.6-22.2,16.9-22.2c6.5,0,11.6,3.7,13.2,10.9h13.1c-1.5-14.7-13.5-22.8-26.2-22.8c-19.3,0-30.6,14.9-30.6,34.1  c0,18.6,11.3,33.5,30.6,33.5c6,0,12.3-2.4,17.1-8.9L865.1,690.2z M754,690.2h12.8V647h0.2l25.9,43.2h13.7v-64.5h-12.8V669h-0.2  l-26-43.3H754V690.2z M697,658.2c0-11.3,4.6-22.2,16.9-22.2c12.3,0,16.9,10.8,16.9,22.2c0,10.8-4.6,21.6-16.9,21.6  C701.6,679.8,697,669,697,658.2 M683.3,658.2c0,18.6,11.3,33.5,30.6,33.5c19.3,0,30.6-14.9,30.6-33.5c0-19.2-11.3-34.1-30.6-34.1  C694.7,624.2,683.3,639.1,683.3,658.2 M637.4,636.7h15c6.1,0,9.4,2.7,9.4,9c0,6.5-3.3,9.2-9.4,9.2h-15V636.7z M623.8,690.2h13.7V665  h13.7c6.9,0,9.4,3,10.4,9.8c0.7,5.2,0.5,11.4,2.2,15.5h13.7c-2.4-3.6-2.3-11.2-2.6-15.3c-0.4-6.5-2.3-13.3-9.1-15.1v-0.2  c6.9-2.9,9.8-8.6,9.8-16.2c0-9.8-7.1-17.8-18.2-17.8h-33.5V690.2z M584.7,690.2h13.7v-52.6H617v-11.9h-51v11.9h18.7V690.2z   M510.3,668.8c-0.2,15.9,12.7,23,26.5,23c16.9,0,25.9-8.9,25.9-20.7c0-14.7-13.9-17.6-18.5-18.8c-15.6-4.2-18.6-4.8-18.6-9.8  c0-5.4,5.1-7.3,9.4-7.3c6.5,0,11.9,2,12.3,9.8h13.2c0-14.9-11.9-20.8-24.9-20.8c-11.2,0-23.3,6.3-23.3,19.5  c0,12.1,9.3,15.8,18.6,18.4c9.2,2.5,18.5,3.7,18.5,10.7c0,6.6-7.3,8-12.1,8c-7.3,0-13.8-3.4-13.8-11.9H510.3z M465,690.2h13.7v-13.9  H465V690.2z M415.1,636.7h15c6.1,0,9.4,2.7,9.4,9c0,6.5-3.3,9.2-9.4,9.2h-15V636.7z M401.4,690.2h13.7V665h13.7  c6.9,0,9.4,3,10.4,9.8c0.7,5.2,0.5,11.4,2.2,15.5H455c-2.4-3.6-2.3-11.2-2.6-15.3c-0.4-6.5-2.4-13.3-9.1-15.1v-0.2  c6.9-2.9,9.8-8.6,9.8-16.2c0-9.8-7-17.8-18.2-17.8h-33.5V690.2z M344.2,690.2h47.2v-11.9h-33.5v-15.8H388v-11h-30.1v-13.8h32.8  v-11.9h-46.5V690.2z M305.1,690.2h13.7v-52.6h18.6v-11.9h-51v11.9h18.6V690.2z M227.1,690.2h13.7v-27.8H266v27.8h13.7v-64.5H266  v24.8h-25.2v-24.8h-13.7V690.2z M206.9,690.2h8.7v-34.9h-26.1v10.6h13.8c-0.8,9-5.9,13.9-14.8,13.9c-12.3,0-16.9-10.9-16.9-21.6  c0-11.3,4.6-22.2,16.9-22.2c6.4,0,11.6,3.7,13.2,10.9h13.1c-1.5-14.7-13.5-22.8-26.2-22.8c-19.3,0-30.6,14.9-30.6,34.1  c0,18.6,11.3,33.5,30.6,33.5c6,0,12.3-2.4,17.1-8.9L206.9,690.2z M134.7,690.2h13.7v-64.5h-13.7V690.2z M83.7,690.2h44v-11.9H97.3  v-52.6H83.7V690.2z"
   id="path22582"
   style="fill:#f9f9f9" />
</svg>
