<?xml version="1.0" encoding="UTF-8" standalone="no"?>
<svg
   width="247pt"
   height="200pt"
   viewBox="0 0 247 200"
   version="1.1"
   id="svg22865"
   sodipodi:docname="Glock_logo.svg"
   inkscape:version="1.2.2 (b0a84865, 2022-12-01)"
   xmlns:inkscape="http://www.inkscape.org/namespaces/inkscape"
   xmlns:sodipodi="http://sodipodi.sourceforge.net/DTD/sodipodi-0.dtd"
   xmlns="http://www.w3.org/2000/svg"
   xmlns:svg="http://www.w3.org/2000/svg">
  <defs
     id="defs22869" />
  <sodipodi:namedview
     id="namedview22867"
     pagecolor="#ffffff"
     bordercolor="#000000"
     borderopacity="0.25"
     inkscape:showpageshadow="2"
     inkscape:pageopacity="0.0"
     inkscape:pagecheckerboard="0"
     inkscape:deskcolor="#d1d1d1"
     inkscape:document-units="pt"
     showgrid="false"
     inkscape:zoom="3.28875"
     inkscape:cx="164.95629"
     inkscape:cy="133.6374"
     inkscape:window-width="1390"
     inkscape:window-height="1205"
     inkscape:window-x="67"
     inkscape:window-y="40"
     inkscape:window-maximized="0"
     inkscape:current-layer="svg22865" />
  <g
     id="#ffffffff"
     style="fill:#f9f9f9">
    <path
       fill="#ffffff"
       opacity="1.00"
       d=" M 0.00 0.00 L 38.60 0.00 C 30.09 0.53 21.65 3.44 14.99 8.84 C 6.83 15.28 1.37 24.98 0.00 35.28 L 0.00 0.00 Z"
       id="path22847"
       style="fill:#f9f9f9" />
    <path
       fill="#ffffff"
       opacity="1.00"
       d=" M 208.13 0.00 L 247.00 0.00 L 247.00 42.64 C 246.85 35.92 246.00 29.09 242.90 23.04 C 236.68 9.73 222.76 0.68 208.13 0.00 Z"
       id="path22849"
       style="fill:#f9f9f9" />
    <path
       fill="#ffffff"
       opacity="1.00"
       d=" M 234.18 189.22 C 241.75 182.24 246.06 172.27 247.00 162.10 L 247.00 200.00 L 211.52 200.00 C 219.95 198.88 228.05 195.14 234.18 189.22 Z"
       id="path22851"
       style="fill:#f9f9f9" />
    <path
       fill="#ffffff"
       opacity="1.00"
       d=" M 0.00 165.20 C 2.15 182.85 17.09 197.79 34.73 200.00 L 0.00 200.00 L 0.00 165.20 Z"
       id="path22853"
       style="fill:#f9f9f9" />
  </g>
  <g
     id="#000000ff"
     style="fill:#f9f9f9">
    <path
       fill="#000000"
       opacity="1.00"
       d=" M 38.60 0.00 L 208.13 0.00 C 222.76 0.68 236.68 9.73 242.90 23.04 C 246.00 29.09 246.85 35.92 247.00 42.64 L 247.00 52.72 C 246.24 55.40 244.00 57.83 241.05 57.78 C 237.83 58.07 234.66 55.33 234.78 52.03 C 234.80 45.56 234.98 38.87 232.36 32.79 C 227.48 20.21 214.51 11.40 201.01 11.51 C 149.01 11.51 97.00 11.47 45.00 11.53 C 27.74 11.53 12.29 26.67 12.03 43.94 C 11.95 80.63 12.03 117.33 11.99 154.03 C 11.91 161.32 14.27 168.60 18.63 174.45 C 24.68 182.72 34.72 188.00 45.00 188.01 C 97.31 187.99 149.63 188.00 201.94 188.01 C 216.19 187.98 229.48 177.60 233.37 163.96 C 235.65 156.34 234.45 148.32 234.75 140.51 C 175.82 140.49 116.89 140.52 57.96 140.49 C 51.62 140.70 45.13 135.64 45.29 128.99 C 45.22 107.02 45.24 85.05 45.28 63.08 C 45.16 59.91 47.72 56.70 51.01 56.71 C 54.54 56.16 57.89 59.43 57.52 62.95 C 57.47 82.62 57.54 102.28 57.48 121.95 C 57.52 123.58 57.44 125.27 57.97 126.84 C 58.82 128.30 60.58 127.93 61.98 128.02 C 117.96 127.97 173.95 128.02 229.93 127.99 C 234.32 128.17 239.12 127.41 243.15 129.57 C 246.13 131.09 247.01 134.57 247.00 137.68 L 247.00 162.10 C 246.06 172.27 241.75 182.24 234.18 189.22 C 228.05 195.14 219.95 198.88 211.52 200.00 L 34.73 200.00 C 17.09 197.79 2.15 182.85 0.00 165.20 L 0.00 35.28 C 1.37 24.98 6.83 15.28 14.99 8.84 C 21.65 3.44 30.09 0.53 38.60 0.00 Z"
       id="path22856"
       style="fill:#f9f9f9" />
    <path
       fill="#000000"
       opacity="1.00"
       d=" M 84.52 57.76 C 96.02 54.64 108.84 63.25 110.21 75.08 C 110.86 82.36 110.32 89.70 110.51 97.01 C 110.78 103.72 107.97 110.55 102.63 114.73 C 95.98 120.15 85.91 120.85 78.60 116.35 C 72.29 112.66 68.21 105.42 68.48 98.09 C 68.53 91.08 68.47 84.06 68.51 77.04 C 68.75 67.98 75.67 59.70 84.52 57.76 M 86.12 69.01 C 82.89 70.29 80.23 73.44 80.26 77.02 C 80.26 84.67 80.20 92.32 80.29 99.97 C 80.62 106.08 88.02 109.96 93.37 107.22 C 96.56 105.79 98.79 102.48 98.73 98.95 C 98.74 91.62 98.82 84.28 98.69 76.94 C 98.51 70.92 91.60 66.79 86.12 69.01 Z"
       id="path22858"
       style="fill:#f9f9f9" />
    <path
       fill="#000000"
       opacity="1.00"
       d=" M 135.54 57.73 C 146.45 55.03 158.92 61.88 161.70 72.92 C 162.66 77.17 158.15 81.33 154.01 79.70 C 151.20 78.98 150.23 76.12 149.20 73.76 C 146.09 68.03 137.34 66.99 133.05 71.96 C 129.18 76.03 130.85 82.02 130.50 87.06 C 130.69 91.67 130.05 96.36 130.91 100.92 C 132.64 107.32 141.65 110.05 146.57 105.56 C 149.91 103.30 149.72 97.82 154.08 96.84 C 158.27 95.27 162.73 99.69 161.60 103.89 C 158.83 114.24 147.48 120.86 137.06 119.07 C 127.35 117.82 118.93 109.30 118.62 99.37 C 118.42 91.92 118.38 84.44 118.65 76.99 C 118.96 67.65 126.53 59.55 135.54 57.73 Z"
       id="path22860"
       style="fill:#f9f9f9" />
    <path
       fill="#000000"
       opacity="1.00"
       d=" M 169.02 62.92 C 169.00 59.79 171.89 57.08 174.99 57.21 C 178.13 57.04 180.99 59.78 180.98 62.92 C 181.06 68.56 180.96 74.21 181.00 79.86 C 188.02 72.96 194.83 65.84 201.95 59.06 C 204.68 56.36 209.86 57.26 211.42 60.80 C 212.69 63.19 211.99 66.27 210.03 68.08 C 205.05 73.13 199.99 78.11 194.99 83.14 C 200.62 91.45 206.33 99.71 212.00 108.00 C 213.74 110.22 213.77 113.58 212.03 115.82 C 209.71 118.70 204.60 118.66 202.53 115.50 C 197.10 107.64 191.71 99.75 186.33 91.86 C 184.53 93.59 182.75 95.36 181.00 97.14 C 180.92 102.80 181.15 108.46 180.91 114.11 C 180.23 118.10 175.28 120.11 171.91 118.06 C 169.82 116.89 168.83 114.42 168.99 112.11 C 169.02 95.71 168.97 79.31 169.02 62.92 Z"
       id="path22862"
       style="fill:#f9f9f9" />
  </g>
</svg>
