<?xml version="1.0" encoding="UTF-8" standalone="no"?>
<!-- Generator: Adobe Illustrator 19.2.1, SVG Export Plug-In . SVG Version: 6.00 Build 0)  -->

<svg
   version="1.1"
   id="Layer_1"
   x="0px"
   y="0px"
   width="1000px"
   height="1000px"
   viewBox="0 0 1000 1000"
   style="enable-background:new 0 0 1000 1000;"
   xml:space="preserve"
   sodipodi:docname="Logo_Sig_sauer.svg"
   inkscape:version="1.2.2 (b0a84865, 2022-12-01)"
   xmlns:inkscape="http://www.inkscape.org/namespaces/inkscape"
   xmlns:sodipodi="http://sodipodi.sourceforge.net/DTD/sodipodi-0.dtd"
   xmlns="http://www.w3.org/2000/svg"
   xmlns:svg="http://www.w3.org/2000/svg"><defs
   id="defs23001" /><sodipodi:namedview
   id="namedview22999"
   pagecolor="#ffffff"
   bordercolor="#000000"
   borderopacity="0.25"
   inkscape:showpageshadow="2"
   inkscape:pageopacity="0.0"
   inkscape:pagecheckerboard="0"
   inkscape:deskcolor="#d1d1d1"
   showgrid="false"
   inkscape:zoom="0.877"
   inkscape:cx="500"
   inkscape:cy="500"
   inkscape:window-width="1390"
   inkscape:window-height="1205"
   inkscape:window-x="0"
   inkscape:window-y="25"
   inkscape:window-maximized="0"
   inkscape:current-layer="Layer_1" />
<g
   id="g22992"
   style="fill:#f9f9f9">
	<path
   d="M485.1,107.6c216.5,0,391.9,175.5,391.9,391.9c0,216.5-175.5,391.9-391.9,391.9C268.7,891.5,93.2,716,93.2,499.5   C93.2,283.1,268.7,107.6,485.1,107.6 M485.1,49.1c-248.4,0-450.4,202.1-450.4,450.4c0,248.4,202.1,450.4,450.4,450.4   c248.4,0,450.4-202.1,450.4-450.4C935.6,251.1,733.5,49.1,485.1,49.1"
   id="path22988"
   style="fill:#f9f9f9" />
	<path
   d="M508.5,179c-8.2-0.6-15.8-0.9-23.4-0.9s-15.2,0.3-23.4,0.9c-4.4,0.3-7.8,4-7.8,8.4v624.2c0,4.4,3.4,8.1,7.8,8.4   c8.2,0.6,15.9,0.9,23.4,0.9s15.2-0.3,23.4-0.9c4.4-0.3,7.8-4,7.8-8.4V187.4C516.3,183,512.9,179.3,508.5,179 M805.4,472.1   c-0.3-3.9-3.2-7-7.1-7.6c-33.3-5.3-68.1-9.8-103.6-13.4h-0.8c-2.1,0-4.1,0.8-5.6,2.2c-1.8,1.6-2.8,3.8-2.8,6.2v45.9   c0,4.3,3.2,7.9,7.5,8.4c16.5,1.7,33,3.7,50.3,6c-6,77.8-46.1,147.5-110.4,192.3v-425c30.2,21.1,56,48.6,74.6,79.7   c1.3,2.3,3.7,3.8,6.3,4c18.7,2.1,37.1,4.4,54.9,6.9c0.4,0.1,0.8,0.1,1.2,0.1c2.6,0,5.1-1.2,6.7-3.4c1.8-2.5,2.2-5.7,0.9-8.5   C739.7,283.3,668.3,220.3,581.8,193c-0.8-0.3-1.7-0.4-2.5-0.4c-1.8,0-3.5,0.6-5,1.6c-2.2,1.6-3.4,4.1-3.4,6.8v597   c0,2.7,1.3,5.2,3.4,6.8c1.5,1.1,3.2,1.6,5,1.6c0.8,0,1.7-0.1,2.5-0.4c124.5-39.2,214.4-153,223.8-283.1c0.7-9,1-16.4,1-23.4   C806.5,490.4,806.2,481.2,805.4,472.1 M397.3,444.7c-1.6-1.5-3.7-2.3-5.8-2.3h-0.3c-55,2.3-109.2,6.7-161.2,13.2   c11.7-67.9,50.6-128.9,107.5-168.6v67.1c0,2.3,1,4.5,2.7,6.1c1.6,1.5,3.6,2.3,5.8,2.3h0.5c15-0.9,30.3-1.8,45.4-2.4   c4.5-0.2,8.1-3.9,8.1-8.4V200.9c0-2.7-1.3-5.2-3.4-6.8c-1.5-1.1-3.2-1.6-5-1.6c-0.9,0-1.7,0.1-2.5,0.4   c-120.6,38-212.4,150.7-223.3,274.1c-1.7,19.5-1.4,40.7-1,51.6c0.1,2.5,1.2,4.7,3.1,6.3c1.5,1.2,3.4,1.9,5.3,1.9c0.5,0,1,0,1.5-0.1   c38.6-7.1,119.5-16.3,162.9-18.7v204c-39.8-27.7-70.8-65.4-89.9-109.4c-1.4-3.1-4.4-5.1-7.7-5.1c-0.3,0-0.7,0-1,0.1   c-16.3,2-32,4.2-46.9,6.5c-2.5,0.4-4.7,1.9-6,4.1c-1.3,2.2-1.5,4.9-0.6,7.3c34.9,90.3,111,161.6,203.6,190.7   c0.8,0.3,1.7,0.4,2.5,0.4c1.8,0,3.5-0.6,5-1.7c2.2-1.6,3.4-4.1,3.4-6.8v-23.4V450.9C399.9,448.5,399,446.3,397.3,444.7"
   id="path22990"
   style="fill:#f9f9f9" />
</g>
<g
   id="g22996"
   style="fill:#f9f9f9">
	<path
   d="M805.1,890.9v6.1h-10.3v28.3h-7.2V897h-10.4v-6.1H805.1z M832.1,890.9h10.4v34.4h-6.7V902v-2.8v-2.8l-6.5,28.9h-7   l-6.5-28.9v28.9h-6.7v-34.4h10.5l6.3,27.1L832.1,890.9z"
   id="path22994"
   style="fill:#f9f9f9" />
</g>
</svg>
