<?xml version="1.0" encoding="UTF-8" standalone="no"?>
<svg
   version="1.2"
   viewBox="0 0 1405 1525"
   width="1405"
   height="1525"
   id="svg23129"
   sodipodi:docname="RGR.svg"
   inkscape:version="1.2.2 (b0a84865, 2022-12-01)"
   xmlns:inkscape="http://www.inkscape.org/namespaces/inkscape"
   xmlns:sodipodi="http://sodipodi.sourceforge.net/DTD/sodipodi-0.dtd"
   xmlns="http://www.w3.org/2000/svg"
   xmlns:svg="http://www.w3.org/2000/svg">
  <defs
     id="defs23133" />
  <sodipodi:namedview
     id="namedview23131"
     pagecolor="#ffffff"
     bordercolor="#000000"
     borderopacity="0.25"
     inkscape:showpageshadow="2"
     inkscape:pageopacity="0.0"
     inkscape:pagecheckerboard="0"
     inkscape:deskcolor="#d1d1d1"
     showgrid="false"
     inkscape:zoom="0.57508197"
     inkscape:cx="703.37799"
     inkscape:cy="762.5"
     inkscape:window-width="1390"
     inkscape:window-height="1205"
     inkscape:window-x="1"
     inkscape:window-y="25"
     inkscape:window-maximized="0"
     inkscape:current-layer="svg23129" />
  <title
     id="title23120">ruger-vector-logo-2022-svg</title>
  <style
     id="style23122">
		.s0 { fill: #cf102d } 
		.s1 { fill: #ffffff } 
	</style>
  <path
     id="Layer"
     fill-rule="evenodd"
     class="s0"
     d="m1399.4 850.2c0 7.4-11 54.2-17.2 77.6-24.7 88.8-82.6 173.8-151.6 218.1-24.6 16.1-50.5 24.7-81.3 34.5-30.8 9.9-77.7 17.3-108.5 12.4-13.5-1.3 3.7 19.7 7.4 23.4 32.1 29.6 78.9 57.9 141.7 43.1 12.4-3.7-14.7 16-22.1 22.2-22.2 18.5-49.3 30.8-78.9 43.1-51.8 21-134.3 27.1-194.7 8.6-25.9-8.6-45.6-22.1-60.4-28.3-6.2-2.5-12.3-6.2-16-7.4-3.7-1.2-7.4 43.1-13.6 66.5-12.3 51.8-35.7 98.6-62.8 135.6-3.7 4.9-16.1 23.4-21 24.6-7.4 1.3-37-36.9-41.9-43.1-22.2-27.1-41.9-60.4-57.9-93.6-8.6-19.8-23.4-59.2-28.4-58-4.9 1.3-33.2 22.2-49.3 29.6-56.6 23.4-171.3 30.8-282.2-55.4-16-12.4-39.4-39.5-32-35.8 14.8 8.7 35.7 12.4 55.4 14.8 65.4 9.9 123.3-24.6 157.8-48 12.3-7.4 29.6-21 30.8-25.9 2.5-4.9-34.5 4.9-50.5 7.4-28.4 3.7-75.2 4.9-108.5 2.4-170-11-256.3-149-290.8-237.8-3.7-8.6-7.4-27.1-4.9-25.8 2.4 1.2 13.5 12.3 28.3 24.6 93.7 78.9 195.9 91.2 218.1 88.7 5 0 5-6.1-4.9-11.1-32-14.8-73.9-53-81.3-60.3-64.1-66.6-83.8-107.3-112.2-157.8-113.4-203.3-57.9-383.2 8.6-463.3 5-7.4 22.2-24.6 18.5-19.7 16-19.7-11.1 48.1-13.5 75.2-18.5 197.1 69 310.5 120.7 345 6.2 4.9-27.1-71.5-30.8-83.8-12.3-38.2-22.1-97.3-23.4-119.5-22.2-297 140.5-520 440-568.1 40.6-6.1-14.8 17.3-33.3 28.4-30.8 18.5-77.6 56.7-108.4 91.2-173.8 197.1-141.8 393-71.5 526.1 19.7 37 76.4 117.1 129.4 131.8 1.2 0 7.4-39.4 12.3-57.9 8.6-32 27.1-59.1 43.1-85 2.5-3.7 9.9-13.5 6.2-16-11.1-6.2-19.7-9.9-25.9-16-25.9-23.4-49.3-72.7-38.2-66.6 65.3 35.8 109.7 5 118.3-1.2 23.4-17.2 41.9-48.1 49.3-80.1 6.2-25.9 13.6-54.2 4.9-82.5-3.7-13.6-24.6-38.2-45.6-33.3-2.4 1.2-4.9 3.7-6.1 6.1-8.6 12.4-3.7 18.5 6.1 23.5 8.7 4.9 3.7 11-7.3 12.3-27.2 3.7-49.3-18.5-35.8-45.6 6.2-13.6 19.7-19.7 29.6-29.6-23.4-8.6-44.4 37-61.6 48.1-13.6 8.6-38.2 13.5-59.2 9.8-14.8-2.4-20.9-6.1-28.3-16-6.2-8.6-13.6-22.2-11.1-37 1.2-8.6 4.9-18.4 11.1-18.4 2.4 0 0 20.9 4.9 29.5 19.7 35.8 61.6 2.5 76.4-12.3 8.6-9.8 21-19.7 32.1-25.9 8.6-4.9 20.9-8.6 22.1-9.8 1.3-1.3 3.7-5-2.4-8.6-27.1-18.5-56.7-8.7-70.3 14.7-4.9 9.9-7.4 19.8-13.5 28.4-8.7-4.9-12.4-11.1-17.3-19.7-7.4-11.1-12.3-19.8-17.2-33.3-6.2-19.7-11.1-44.4 0-64.1 9.8-17.2 27.1-32 46.8-38.2 7.4-2.4 17.2-1.2 22.2-4.9 4.9-2.5 6.1-9.9 9.8-13.6 5-7.4 17.3-16 25.9-19.7 85-36.9 144.2 44.4 215.7 49.3 33.3 2.5 66.5-11.1 87.5-23.4 4.9-2.5 8.6-6.2 13.5-8.6 3.7-3.7 3.7 0 0 6.1-17.2 33.3-28.3 53-59.1 76.4-6.2 5-11.1 7.4-6.2 14.8 38.2 59.2 34.5 91.2 39.5 122 2.4 13.6 0 33.3-1.3 45.6-3.7 28.3-12.3 67.8-13.5 75.2-6.2 24.6-12.4 46.8-16.1 70.2-4.9 35.7 8.7 61.6 16.1 83.8 14.8 46.8 75.1 62.8 72.7 67.8-3.7 4.9-75.2-8.7-78.9-6.2-7.4 4.9 23.4 64.1 46.8 93.6 5 6.2 11.1 18.5 22.2 11.1 77.7-55.4 93.7-104.7 114.6-145.4 22.2-44.3 46.9-133 25.9-256.3-20.9-123.2-65.3-261.2-198.4-347.4-59.2-38.2-108.5-50.6-60.4-46.9 199.7 17.3 327.8 187.3 352.5 216.9 108.4 133.1 96.1 346.2 91.2 386.9-5 40.7-21 104.7-40.7 146.6-4.9 9.9-18.5 34.5-13.6 29.6 145.5-138 138.1-304.3 106-422.6-7.4-27.1-19.7-61.6-14.8-53-3.7-9.9 23.5 19.7 33.3 35.7 198.4 300.7 13.6 576.7-130.6 659.2-14.8 8.7-41.9 22.2-44.4 25.9-2.5 3.7-2.5 7.4 46.8-7.4 71.5-20.9 125.7-54.2 171.3-109.6 29.6-37 38.2-75.2 38.2-59.2zm-781.3-680.2c0 1.3-1.2 2.5-2.4 5 7.3 3.7 14.7 11.1 16 19.7 2.4 14.8-7.4 23.4-13.6 30.8 4.9 6.2 13.6 4.9 21 1.2 32-16 19.7-56.7-21-56.7zm284.7 994.4c-8.6 0-30.8 0-46.8-18.5-7.4-8.6-8.7-11-18.5-22.1-25.9-30.8-55.5-72.7-96.1-90 0 0 39.4-4.9 60.3-24.6 22.2-22.2 29.6-66.6 8.7-96.1-5-6.2-11.1-12.4-17.3-16.1-7.4-4.9-12.3-7.4-27.1-12.3-46.8-16-163.9-8.6-163.9-8.6 0 11.1 20.9 16 20.9 25.9 0 9.8 0 83.8 0 117-8.6 1.3-18.4 3.7-29.5 6.2l-12.4 27.1c12.4-4.9 27.2-8.6 41.9-9.9v113.4c0 9.9-18.4 8.6-22.1 21h83.8c-3.7-11.1-22.2-9.9-22.2-19.8v-114.6c3.7 0 29.6 0 30.8 0 45.6 1.3 85 75.2 115.8 110.9 6.2 7.4 18.5 17.3 29.6 21 16 6.1 41.9 4.9 56.7-1.2 3.7-1.3 6.2-2.5 7.4-8.7z"
     style="fill:#f9f9f9" />
  <path
     id="path23125"
     class="s0"
     d="m780.8 955c0-12.4-9.9-32.1-25.9-41.9-20.9-13.6-85-12.4-94.9-11.1v117h38.2c46.9 0 82.6-13.5 82.6-64z"
     style="fill:#f9f9f9" />
  <path
     id="path23127"
     fill-rule="evenodd"
     class="s1"
     d="m856 1145.9c14.8 18.5 38.2 18.5 46.8 18.5-1.2 6.2-3.7 7.4-7.4 8.7-14.8 4.9-40.7 7.3-56.7 1.2-11.1-3.7-22.2-12.3-29.6-21-30.8-36.9-69-109.6-115.8-110.9-1.2 0-27.1 0-30.8 0v113.4c0 9.9 18.5 8.6 22.2 19.7h-83.8c3.7-12.3 22.1-11.1 22.1-20.9v-113.4c-16 2.5-29.5 4.9-41.9 9.9l12.4-27.1c11.1-3.7 20.9-5 29.5-6.2 0-34.5 0-107.2 0-117.1 0-9.8-20.9-13.5-20.9-25.8 0 0 117.1-6.2 163.9 8.6 14.8 4.9 19.7 7.4 27.1 12.3 6.2 3.7 12.3 9.9 17.3 16 22.2 29.6 13.5 75.2-8.7 96.1-20.9 19.8-60.3 25.9-60.3 25.9 41.9 18.5 71.4 59.2 96.1 90 8.6 12.3 9.8 13.5 18.5 22.1zm-155.3-126.9c44.4 0 81.3-13.5 81.3-64 0-12.4-9.8-32.1-25.9-41.9-20.9-12.4-85-12.4-94.8-11.1v117z"
     style="fill:#f9f9f9" />
</svg>
