<?xml version="1.0" encoding="UTF-8" standalone="no"?>
<svg
   version="1.1"
   id="Layer_1"
   x="0px"
   y="0px"
   width="100%"
   viewBox="0 0 360 358"
   enable-background="new 0 0 360 358"
   xml:space="preserve"
   sodipodi:docname="cerkote-certified-applicator.svg"
   inkscape:version="1.2.2 (b0a84865, 2022-12-01)"
   xmlns:inkscape="http://www.inkscape.org/namespaces/inkscape"
   xmlns:sodipodi="http://sodipodi.sourceforge.net/DTD/sodipodi-0.dtd"
   xmlns="http://www.w3.org/2000/svg"
   xmlns:svg="http://www.w3.org/2000/svg"><defs
   id="defs10868" /><sodipodi:namedview
   id="namedview10866"
   pagecolor="#ffffff"
   bordercolor="#000000"
   borderopacity="0.25"
   inkscape:showpageshadow="2"
   inkscape:pageopacity="0.0"
   inkscape:pagecheckerboard="0"
   inkscape:deskcolor="#d1d1d1"
   showgrid="false"
   inkscape:zoom="2.4497207"
   inkscape:cx="180.22463"
   inkscape:cy="211.65678"
   inkscape:window-width="1390"
   inkscape:window-height="1205"
   inkscape:window-x="164"
   inkscape:window-y="34"
   inkscape:window-maximized="0"
   inkscape:current-layer="Layer_1" />
<path
   fill="#1067CE"
   opacity="1.000000"
   stroke="none"
   d=" M202.000000,359.000000   C199.299988,359.000000 196.599976,359.000000 193.162537,358.695496   C186.597107,358.294983 180.769104,358.199036 174.541931,358.076538   C172.428513,358.366638 170.714249,358.683319 169.000000,359.000000   C165.969406,359.000000 162.938812,359.000000 159.652863,358.609863   C158.029907,357.787781 156.691330,357.161865 155.290466,356.952393   C121.577072,351.911102 91.407951,338.789459 65.347008,316.789886   C30.600891,287.458679 9.800858,250.186249 2.914525,205.181793   C2.791190,204.375748 1.660602,203.723831 1.000000,203.000000   C1.000000,201.933334 1.000000,200.866653 1.276103,199.515869   C1.368138,198.821152 1.184070,198.410583 1.000001,198.000000   C1.000000,194.969406 1.000000,191.938812 1.243605,188.266571   C1.324807,186.749954 1.162405,185.874969 1.000001,185.000000   C1.000000,181.307098 1.000000,177.614182 1.244908,173.283234   C1.646944,172.074142 1.804073,171.503082 1.963876,170.612717   C1.986328,169.868347 2.006107,169.443268 2.289357,168.741501   C2.336116,166.298004 2.119402,164.131226 1.882740,161.653564   C1.575194,161.228470 1.287597,161.114227 1.000000,161.000000   C1.000000,160.250000 1.000000,159.500000 1.251313,158.614838   C1.974627,157.990982 2.446627,157.502304 3.205829,156.750732   C3.933492,153.145874 4.373954,149.803894 4.720343,146.222015   C4.727477,145.660416 4.828684,145.338715 5.156512,144.888458   C5.326046,144.178207 5.268961,143.596527 5.183701,142.700745   C5.414560,141.596420 5.673594,140.806198 6.217921,139.782608   C6.622772,138.587601 6.742328,137.625946 6.835016,136.494049   C6.808147,136.323776 6.973752,136.021423 7.242636,135.777649   C7.592499,134.827087 7.673479,134.120300 7.670895,133.325272   C7.587330,133.237030 7.688397,133.015991 7.949594,132.916458   C8.202655,132.217957 8.194519,131.619003 8.164480,130.732925   C8.386663,129.951447 8.630749,129.457062 9.173510,128.750793   C9.909357,126.842049 10.346529,125.145203 10.771194,123.133713   C11.116220,121.862480 11.473752,120.905899 12.128603,119.758064   C12.556294,118.890900 12.686667,118.214981 12.801812,117.389648   C12.786584,117.240242 12.985953,117.015579 13.300224,116.847504   C14.693944,113.667686 15.773393,110.655945 16.887432,107.288666   C22.879395,92.406403 31.330011,79.339699 41.262917,67.326591   C70.733398,31.684217 108.435028,10.252061 154.130753,2.895753   C155.162170,2.729710 156.046860,1.652294 157.000000,1.000000   C157.750000,1.000000 158.500000,1.000000 159.500412,1.286127   C160.167221,1.381503 160.583603,1.190752 161.000000,1.000000   C173.687561,1.000000 186.375122,1.000000 199.655853,1.312449   C200.832687,1.416598 201.416336,1.208298 202.000000,0.999999   C202.750000,1.000000 203.500000,1.000000 204.409851,1.386600   C205.435318,2.155564 206.267685,2.746264 207.171310,2.890499   C260.685242,11.432465 302.449432,38.298664 332.379486,83.421867   C346.162415,104.201263 354.473816,127.184303 358.810516,151.678925   C359.022736,152.877594 360.247009,153.897079 361.000000,155.000000   C361.000000,169.354233 361.000000,183.708450 360.708527,198.615356   C360.611389,199.445358 360.805695,199.722672 361.000000,200.000000   C361.000000,200.750000 361.000000,201.500000 360.607056,202.430145   C359.776489,203.967239 359.249512,205.302597 358.915527,206.684586   C356.574249,216.372543 354.978943,226.306015 351.833160,235.722717   C339.898651,271.448059 318.776367,300.736267 288.482147,323.221497   C263.547729,341.728577 235.706268,353.177856 204.811462,357.047638   C203.808533,357.173279 202.934250,358.326050 202.000000,359.000000  M11.542736,142.469833   C11.420578,143.776932 11.298421,145.084045 11.285264,146.686523   C11.285264,146.686523 11.166731,146.978210 10.561102,147.478851   C10.472686,148.504532 10.384269,149.530228 10.509080,151.016464   C10.434198,151.341751 10.359317,151.667038 9.690793,152.322296   C9.699498,153.533371 9.708203,154.744461 9.778318,156.636765   C9.665551,157.074615 9.552784,157.512466 8.823853,158.266617   C8.790112,160.827606 8.756371,163.388580 8.818250,166.706482   C8.729452,167.457748 8.640656,168.209015 7.864883,169.275574   C7.606807,176.577820 7.104737,183.883286 7.201132,191.180847   C7.244556,194.468231 8.481723,197.739853 9.287315,201.316116   C9.287315,201.316116 9.184223,201.616089 9.057339,202.557449   C10.432943,209.045654 11.808548,215.533844 13.315338,222.280640   C13.315338,222.280640 13.205505,222.549011 13.079637,223.362473   C13.752899,225.248215 14.426163,227.133942 15.268607,229.256958   C15.268607,229.256958 15.216636,229.543701 15.090356,230.297791   C15.688685,231.528137 16.287014,232.758484 17.121077,234.694153   C17.726570,236.243362 18.358356,237.782883 18.933683,239.343201   C31.349525,273.015778 52.447147,300.268402 81.763733,320.568237   C118.668816,346.122620 159.905563,356.534546 204.494522,349.909576   C266.148926,340.748993 311.073212,307.595795 337.846985,251.427856   C357.645081,209.893906 359.685028,166.317703 343.871674,123.169075   C322.334290,64.401733 280.268585,27.094439 219.293152,12.585295   C173.447342,1.676256 129.856171,9.457616 89.788139,34.054092   C54.480164,55.728527 30.377655,86.834099 16.378105,126.461487   C16.243805,127.255562 16.109503,128.049637 15.726765,129.464645   C15.453837,130.314697 15.180911,131.164749 14.365475,132.482040   C13.978503,134.129364 13.591531,135.776688 13.286003,137.715332   C13.286003,137.715332 13.147500,137.984238 12.566921,138.436172   C12.480955,139.145538 12.394989,139.854904 12.454156,141.039566   C12.441302,141.379166 12.343297,141.692078 11.542736,142.469833  z"
   id="path10647"
   style="fill:#d24851;fill-opacity:1" />




<path
   fill="#014FB3"
   opacity="1.000000"
   stroke="none"
   d=" M174.941116,358.103088   C180.769104,358.199036 186.597107,358.294983 192.712555,358.695496   C187.311966,359.000000 181.623917,359.000000 175.456863,358.775513   C174.977844,358.551056 174.941116,358.103088 174.941116,358.103088  z"
   id="path10657" />
<path
   fill="#1960B8"
   opacity="1.000000"
   stroke="none"
   d=" M1.902689,161.964432   C2.119402,164.131226 2.336116,166.298004 2.255319,168.441132   C1.638541,167.944977 1.319273,167.472488 1.000002,167.000000   C1.000000,165.611115 1.000000,164.222214 1.226128,162.419342   C1.452257,162.005356 1.902689,161.964432 1.902689,161.964432  z"
   id="path10659" />
<path
   fill="#004295"
   opacity="1.000000"
   stroke="none"
   d=" M174.541931,358.076538   C174.941116,358.103088 174.977844,358.551056 174.988922,358.775513   C173.285645,359.000000 171.571289,359.000000 169.428467,359.000000   C170.714249,358.683319 172.428513,358.366638 174.541931,358.076538  z"
   id="path10661" />
<path
   fill="#004295"
   opacity="1.000000"
   stroke="none"
   d=" M1.000002,167.399994   C1.319273,167.472488 1.638541,167.944977 1.991847,168.717834   C2.006107,169.443268 1.986328,169.868347 1.724222,170.636658   C1.481894,170.979904 1.000000,171.000000 1.000000,171.000000   C1.000000,169.933334 1.000000,168.866653 1.000002,167.399994  z"
   id="path10663" />
<path
   fill="#055FC7"
   opacity="1.000000"
   stroke="none"
   d=" M1.000001,185.375000   C1.162405,185.874969 1.324807,186.749954 1.243605,187.812469   C1.000000,187.250000 1.000000,186.500000 1.000001,185.375000  z"
   id="path10665" />
<path
   fill="#055FC7"
   opacity="1.000000"
   stroke="none"
   d=" M1.000000,171.333328   C1.000000,171.000000 1.481894,170.979904 1.721548,170.955963   C1.804073,171.503082 1.646944,172.074142 1.244908,172.822601   C1.000000,172.555557 1.000000,172.111099 1.000000,171.333328  z"
   id="path10667" />
<path
   fill="#020203"
   opacity="1.000000"
   stroke="none"
   d=" M201.666672,0.999999   C201.416336,1.208298 200.832687,1.416598 200.124512,1.312449   C200.444443,1.000000 200.888901,1.000000 201.666672,0.999999  z"
   id="path10669" />
<path
   fill="#020203"
   opacity="1.000000"
   stroke="none"
   d=" M1.882740,161.653564   C1.902689,161.964432 1.452257,162.005356 1.226128,162.002686   C1.000000,162.000000 1.000000,161.500000 1.000000,161.250000   C1.287597,161.114227 1.575194,161.228470 1.882740,161.653564  z"
   id="path10671" />
<path
   fill="#020203"
   opacity="1.000000"
   stroke="none"
   d=" M160.750000,1.000000   C160.583603,1.190752 160.167221,1.381503 159.875412,1.286127   C160.000000,1.000000 160.500000,1.000000 160.750000,1.000000  z"
   id="path10673" />
<path
   fill="#020303"
   opacity="1.000000"
   stroke="none"
   d=" M1.000001,198.250000   C1.184070,198.410583 1.368138,198.821152 1.276103,199.115875   C1.000000,199.000000 1.000000,198.500000 1.000001,198.250000  z"
   id="path10675" />
<path
   fill="#020303"
   opacity="1.000000"
   stroke="none"
   d=" M361.000000,199.750000   C360.805695,199.722672 360.611389,199.445358 360.708527,199.084015   C361.000000,199.000000 361.000000,199.500000 361.000000,199.750000  z"
   id="path10677" />
<path
   fill="#070B13"
   opacity="1.000000"
   stroke="none"
   d=" M10.284436,151.992325   C10.359317,151.667038 10.434198,151.341751 10.645618,150.490601   C10.910347,148.969223 11.038538,147.973709 11.166731,146.978210   C11.166731,146.978210 11.285264,146.686523 11.449190,146.217026   C11.795457,144.491119 11.977799,143.234711 12.160140,141.978302   C12.343297,141.692078 12.441302,141.379166 12.621201,140.540207   C12.907998,139.355316 13.027749,138.669769 13.147501,137.984238   C13.147500,137.984238 13.286003,137.715332 13.488762,137.293182   C14.097010,135.252289 14.502499,133.633545 14.907986,132.014801   C15.180911,131.164749 15.453837,130.314697 16.087646,128.957642   C16.571161,127.644859 16.693794,126.839073 16.816429,126.033295   C30.377655,86.834099 54.480164,55.728527 89.788139,34.054092   C129.856171,9.457616 173.447342,1.676256 219.293152,12.585295   C280.268585,27.094439 322.334290,64.401733 343.871674,123.169075   C359.685028,166.317703 357.645081,209.893906 337.846985,251.427856   C311.073212,307.595795 266.148926,340.748993 204.494522,349.909576   C159.905563,356.534546 118.668816,346.122620 81.763733,320.568237   C52.447147,300.268402 31.349525,273.015778 18.933683,239.343201   C18.358356,237.782883 17.726570,236.243362 17.025745,233.993927   C16.359154,232.043686 15.787897,230.793701 15.216638,229.543701   C15.216636,229.543701 15.268607,229.256958 15.194087,228.754517   C14.481546,226.351059 13.843525,224.450043 13.205505,222.549011   C13.205505,222.549011 13.315338,222.280640 13.267191,221.726471   C11.874103,214.653580 10.529162,208.134827 9.184222,201.616089   C9.184223,201.616089 9.287315,201.316116 9.288166,200.699463   C9.043297,189.708618 8.797579,179.334457 8.551859,168.960281   C8.640656,168.209015 8.729452,167.457748 8.887764,165.931946   C9.118192,162.755035 9.279104,160.352676 9.440016,157.950317   C9.552784,157.512466 9.665551,157.074615 9.896473,155.921280   C10.104564,154.134644 10.194500,153.063477 10.284436,151.992325  M292.734222,57.762989   C251.160370,21.494301 203.109344,8.112068 148.919449,17.980846   C55.471989,34.999008 -4.534314,130.983124 20.618517,222.646545   C44.278767,308.870636 131.020905,360.705963 218.391403,340.831543   C289.945465,324.554932 343.196259,262.116211 346.730927,189.227295   C349.239594,137.495728 330.994904,93.773193 292.734222,57.762989  z"
   id="path10679" />
<path
   fill="#185EB3"
   opacity="1.000000"
   stroke="none"
   d=" M8.208371,169.117920   C8.797579,179.334457 9.043297,189.708618 9.233137,200.550705   C8.481723,197.739853 7.244556,194.468231 7.201132,191.180847   C7.104737,183.883286 7.606807,176.577820 8.208371,169.117920  z"
   id="path10681" />
<path
   fill="#185EB3"
   opacity="1.000000"
   stroke="none"
   d=" M9.120780,202.086761   C10.529162,208.134827 11.874103,214.653580 13.201599,221.597183   C11.808548,215.533844 10.432943,209.045654 9.120780,202.086761  z"
   id="path10683" />
<path
   fill="#1960B8"
   opacity="1.000000"
   stroke="none"
   d=" M13.300224,116.847504   C14.101134,114.059608 15.216316,111.103630 16.592171,107.895935   C15.773393,110.655945 14.693944,113.667686 13.300224,116.847504  z"
   id="path10685" />
<path
   fill="#1960B8"
   opacity="1.000000"
   stroke="none"
   d=" M3.205831,156.750732   C3.381833,153.715179 3.845035,150.416733 4.561327,146.790100   C4.373954,149.803894 3.933492,153.145874 3.205831,156.750732  z"
   id="path10687" />
<path
   fill="#185EB3"
   opacity="1.000000"
   stroke="none"
   d=" M9.131935,158.108459   C9.279104,160.352676 9.118192,162.755035 8.839954,165.553482   C8.756371,163.388580 8.790112,160.827606 9.131935,158.108459  z"
   id="path10689" />
<path
   fill="#185EB3"
   opacity="1.000000"
   stroke="none"
   d=" M13.142570,222.955750   C13.843525,224.450043 14.481546,226.351059 15.109497,228.635895   C14.426163,227.133942 13.752899,225.248215 13.142570,222.955750  z"
   id="path10691" />
<path
   fill="#185EB3"
   opacity="1.000000"
   stroke="none"
   d=" M15.153498,229.920746   C15.787897,230.793701 16.359154,232.043686 16.907879,233.641266   C16.287014,232.758484 15.688685,231.528137 15.153498,229.920746  z"
   id="path10693" />
<path
   fill="#1960B8"
   opacity="1.000000"
   stroke="none"
   d=" M9.173512,128.750793   C9.331388,127.302589 9.787940,125.642494 10.514096,123.715378   C10.346529,125.145203 9.909357,126.842049 9.173512,128.750793  z"
   id="path10695" />
<path
   fill="#185EB3"
   opacity="1.000000"
   stroke="none"
   d=" M14.636731,132.248413   C14.502499,133.633545 14.097010,135.252289 13.448040,137.147522   C13.591531,135.776688 13.978503,134.129364 14.636731,132.248413  z"
   id="path10697" />
<path
   fill="#185EB3"
   opacity="1.000000"
   stroke="none"
   d=" M9.987616,152.157318   C10.194500,153.063477 10.104564,154.134644 9.865768,155.580658   C9.708203,154.744461 9.699498,153.533371 9.987616,152.157318  z"
   id="path10699" />
<path
   fill="#185EB3"
   opacity="1.000000"
   stroke="none"
   d=" M11.851439,142.224060   C11.977799,143.234711 11.795457,144.491119 11.394690,146.069336   C11.298421,145.084045 11.420578,143.776932 11.851439,142.224060  z"
   id="path10701" />
<path
   fill="#185EB3"
   opacity="1.000000"
   stroke="none"
   d=" M10.863916,147.228531   C11.038538,147.973709 10.910347,148.969223 10.539003,150.260315   C10.384269,149.530228 10.472686,148.504532 10.863916,147.228531  z"
   id="path10703" />
<path
   fill="#185EB3"
   opacity="1.000000"
   stroke="none"
   d=" M16.597267,126.247391   C16.693794,126.839073 16.571161,127.644859 16.211864,128.647186   C16.109503,128.049637 16.243805,127.255562 16.597267,126.247391  z"
   id="path10705" />
<path
   fill="#1960B8"
   opacity="1.000000"
   stroke="none"
   d=" M6.217919,139.782608   C6.082992,139.080154 6.233360,138.144348 6.622806,136.936417   C6.742328,137.625946 6.622772,138.587601 6.217919,139.782608  z"
   id="path10707" />
<path
   fill="#1960B8"
   opacity="1.000000"
   stroke="none"
   d=" M7.242636,135.777649   C7.071145,135.326904 7.168537,134.632370 7.510194,133.675690   C7.673479,134.120300 7.592499,134.827087 7.242636,135.777649  z"
   id="path10709" />
<path
   fill="#1960B8"
   opacity="1.000000"
   stroke="none"
   d=" M12.128603,119.758064   C11.993280,119.301086 12.155276,118.652863 12.567156,117.771851   C12.686667,118.214981 12.556294,118.890900 12.128603,119.758064  z"
   id="path10711" />
<path
   fill="#1960B8"
   opacity="1.000000"
   stroke="none"
   d=" M7.949594,132.916458   C7.747792,132.557419 7.807186,132.098831 8.026482,131.330139   C8.194519,131.619003 8.202655,132.217957 7.949594,132.916458  z"
   id="path10713" />
<path
   fill="#185EB3"
   opacity="1.000000"
   stroke="none"
   d=" M12.857211,138.210205   C13.027749,138.669769 12.907998,139.355316 12.548635,140.302551   C12.394989,139.854904 12.480955,139.145538 12.857211,138.210205  z"
   id="path10715" />
<path
   fill="#1960B8"
   opacity="1.000000"
   stroke="none"
   d=" M5.156512,144.888458   C4.939766,144.562271 4.949641,144.107529 5.085695,143.333801   C5.268961,143.596527 5.326046,144.178207 5.156512,144.888458  z"
   id="path10717" />
<path
   fill="#F1F1F1"
   opacity="1.000000"
   stroke="none"
   d=" M292.999084,57.998833   C330.994904,93.773193 349.239594,137.495728 346.730927,189.227295   C343.196259,262.116211 289.945465,324.554932 218.391403,340.831543   C131.020905,360.705963 44.278767,308.870636 20.618517,222.646545   C-4.534314,130.983124 55.471989,34.999008 148.919449,17.980846   C203.109344,8.112068 251.160370,21.494301 292.999084,57.998833  M231.740082,29.722595   C149.506668,1.799760 58.338173,46.252697 30.228397,127.977859   C1.576390,211.279495 46.082176,301.675934 129.706116,330.028625   C212.784866,358.196472 303.968079,313.478882 331.947601,230.846436   C360.033051,147.901230 315.633453,58.198421 231.740082,29.722595  z"
   id="path10719" />
<path
   fill="#060606"
   opacity="1.000000"
   stroke="none"
   d=" M232.121185,29.827282   C315.633453,58.198421 360.033051,147.901230 331.947601,230.846436   C303.968079,313.478882 212.784866,358.196472 129.706116,330.028625   C46.082176,301.675934 1.576390,211.279495 30.228397,127.977859   C58.338173,46.252697 149.506668,1.799760 232.121185,29.827282  M312.744690,130.708542   C313.147186,131.391495 313.549683,132.074432 314.650452,132.870056   C315.379456,132.000519 316.108459,131.130966 316.837433,130.261414   C315.538055,130.165314 314.238678,130.069214 312.744690,130.708542  M123.774872,255.786209   C121.895897,255.539474 120.016922,255.292755 118.884361,255.144043   C117.564461,257.373840 116.226181,259.634674 115.419930,260.996704   C117.246613,262.654602 119.216934,264.442841 120.637314,265.731964   C122.475380,264.635468 124.705612,263.304993 126.225075,262.398560   C125.935913,260.632446 125.573578,258.419434 125.726257,255.915665   C125.707802,255.625183 125.689339,255.334686 125.670876,255.044220   C125.281769,255.161621 124.892654,255.279022 123.774872,255.786209  M94.734718,93.259628   C95.715912,92.487114 96.697113,91.714600 97.686317,90.935783   C95.108810,87.788445 92.815620,84.988274 90.187492,81.779121   C95.940979,80.921394 98.671494,89.808159 105.030762,84.520370   C102.328957,82.778259 100.128624,81.585915 98.205002,80.047569   C96.663033,78.814445 95.378860,77.225060 94.118774,75.680771   C91.821381,72.865265 90.144302,69.145157 87.251060,67.320496   C84.021194,65.283546 81.136780,68.305687 78.696114,70.664154   C77.875641,71.456993 76.835114,72.022118 75.661232,72.857872   C81.561211,79.286560 86.915955,85.121147 92.332832,91.740318   C90.065521,93.474678 87.798210,95.209030 85.234879,97.169815   C83.536598,95.698753 81.732124,94.135704 79.952835,92.594467   C83.726929,87.670853 83.726929,87.670853 79.708153,85.493790   C78.885574,86.727989 77.965668,88.108223 76.835442,89.804008   C74.602409,87.850960 72.901932,86.363693 71.173698,84.852150   C72.891525,82.704704 74.396591,80.823235 75.902382,78.940849   C72.376389,76.246735 69.691467,78.084923 65.397537,85.768677   C72.182220,91.689728 78.984352,97.626007 86.292763,104.004128   C89.137985,99.930382 91.564827,96.455666 94.734718,93.259628  M246.201157,75.690750   C247.228577,76.806503 248.256012,77.922264 249.338806,79.098152   C251.042282,77.502609 252.360657,76.267776 253.728867,74.986267   C256.253632,75.905098 258.007294,77.077896 255.967087,79.975494   C253.894531,82.918999 255.842773,83.905434 258.415710,84.993370   C262.550903,76.539879 266.593964,68.274666 270.653564,59.975700   C268.872650,58.683556 267.560333,57.731407 265.712311,56.390591   C261.589478,60.634613 257.656281,64.873528 253.481018,68.858864   C252.315735,69.971146 250.435623,70.334534 249.160706,70.291016   C251.679703,67.324242 249.719574,66.519615 247.071198,65.748344   C246.335098,66.885521 245.875793,68.023254 245.051300,68.742134   C244.303986,69.393753 243.158585,69.588844 242.188690,69.985207   C241.862976,68.849861 240.922226,67.404366 241.312668,66.630173   C243.621490,62.051876 246.163712,57.583202 248.837860,53.206219   C249.223633,52.574772 250.743637,52.636292 251.738754,52.377125   C251.994186,53.384300 252.541885,54.426674 252.425980,55.389118   C252.300552,56.430378 251.555740,57.397041 250.989609,58.588810   C252.390244,59.218918 253.519485,59.726929 254.597946,60.212093   C258.131958,54.730831 257.896637,51.154797 254.058395,48.775787   C249.959579,46.235279 246.484833,47.698174 243.409821,53.280075   C241.891129,56.036869 240.405930,58.812088 238.895767,61.573616   C234.257492,70.055435 236.392212,74.059807 246.201157,75.690750  M150.980057,59.262592   C148.504639,59.076370 146.029205,58.890144 142.912735,58.655697   C142.393906,57.121426 141.625061,54.847790 140.934174,52.804703   C142.776520,50.783974 148.177048,51.902046 145.148453,46.723499   C143.336151,47.154015 141.611649,47.563671 139.584900,48.045128   C138.883682,45.752815 138.231186,43.619740 137.522049,41.301502   C140.018158,40.374516 142.163681,39.577728 144.556885,38.688961   C144.095551,37.336361 143.707352,36.198162 143.261932,34.892235   C139.272873,36.145306 135.680923,37.273632 131.885437,38.465889   C134.696182,47.466419 137.404572,56.139156 140.264618,65.297539   C144.157944,63.724884 147.574020,62.345005 151.493301,60.069580   C160.438950,62.856003 165.681351,58.390900 164.124649,49.317844   C163.704010,46.866161 163.312912,44.409431 162.902222,41.956028   C161.286209,32.301903 157.165192,30.224520 147.891953,34.589661   C149.219849,41.693142 150.637131,48.842529 151.824203,56.029942   C152.033905,57.299633 151.282547,58.728046 150.980057,59.262592  M252.052948,291.066711   C249.321899,288.663666 246.590851,286.260620 243.602859,283.631500   C242.262283,284.615417 241.035309,285.515930 239.756699,286.454346   C244.782822,294.431885 249.549408,301.997498 254.439636,309.759338   C255.791351,308.886932 256.848785,308.204468 258.044250,307.432922   C255.915070,303.947937 253.922913,300.687195 251.740967,297.115814   C257.540771,297.131500 259.267731,306.964569 266.600342,302.191193   C261.470093,294.067017 256.703827,286.519226 251.756073,278.684021   C250.434418,279.566254 249.412262,280.248596 248.275772,281.007233   C250.246765,284.374329 252.066605,287.483246 253.255783,290.930664   C253.059616,291.066498 252.863464,291.202362 252.052948,291.066711  M145.500031,217.327576   C112.783218,217.327576 80.066399,217.327576 47.018517,217.327576   C47.018517,219.949829 47.053505,221.601837 47.012745,223.251984   C46.778107,232.751343 47.175102,230.932800 54.789570,230.938354   C137.918091,230.999039 221.046646,231.001755 304.175201,231.006302   C305.622040,231.006393 307.068878,230.833862 308.704895,230.729843   C308.704895,226.176636 308.704895,221.973480 308.704895,217.328247   C254.377686,217.328247 200.438858,217.328247 145.500031,217.327576  M128.190689,188.502274   C128.190689,193.605240 128.190689,198.708191 128.190689,203.816193   C132.993378,203.816193 137.227158,203.816193 141.794769,203.816193   C141.794769,195.879562 141.769241,188.254349 141.803879,180.629410   C141.826447,175.662231 140.902084,171.164154 135.747665,168.444061   C140.618225,166.497452 141.586868,162.582291 141.720261,158.502533   C141.943130,151.686279 141.982590,144.851776 141.754166,138.036530   C141.530121,131.351944 138.881821,127.952888 132.800674,127.525772   C125.568939,127.017830 118.274269,127.406204 110.859200,127.406204   C110.859200,153.062653 110.859200,178.414490 110.859200,203.791412   C115.407524,203.791412 119.626144,203.791412 124.152649,203.791412   C124.152649,193.701904 124.152649,183.932053 124.152649,174.162201   C124.604073,173.903320 125.055504,173.644440 125.506927,173.385559   C126.401970,174.598297 127.934143,175.744568 128.068970,177.036636   C128.429749,180.493866 128.191177,184.013626 128.190689,188.502274  M248.187195,202.771347   C249.132751,200.353699 250.872314,197.944626 250.898560,195.517029   C251.112793,175.698303 251.118195,155.875092 250.933548,136.055603   C250.875427,129.817444 247.563950,126.691910 241.242844,126.272186   C237.263504,126.007957 233.241516,126.044914 229.257401,126.273590   C223.289352,126.616119 220.227264,129.360382 220.161240,135.363205   C219.941422,155.346939 219.979706,175.334915 220.114319,195.319946   C220.141144,199.301239 221.631531,203.741669 226.044556,204.018127   C233.168167,204.464401 240.375076,203.580750 248.187195,202.771347  M197.743729,153.600189   C197.356674,154.320404 196.969635,155.040634 195.879944,157.068329   C195.879944,146.191010 195.879944,136.794678 195.879944,127.504578   C191.402863,127.504578 187.335480,127.504578 183.363922,127.504578   C183.363922,153.218552 183.363922,178.594025 183.363922,203.884567   C187.817566,203.884567 191.925262,203.884567 196.339661,203.884567   C196.339661,193.138092 196.339661,182.640121 196.339661,172.142136   C196.642593,172.093628 196.945526,172.045105 197.248459,171.996597   C199.681717,182.677582 202.114990,193.358566 204.523209,203.929581   C209.313675,203.929581 213.605698,203.929581 218.319672,203.929581   C216.966797,198.521103 215.865265,193.342850 214.368423,188.281525   C210.191406,174.157562 207.171997,160.098648 211.807510,145.351273   C213.601334,139.644424 213.980927,133.493027 215.012894,127.497002   C210.343384,127.497002 206.274033,127.497002 202.033096,127.497002   C200.609177,136.146225 199.234665,144.495239 197.743729,153.600189  M173.664917,137.922958   C173.277084,134.491745 172.889252,131.060532 172.478577,127.427223   C165.639328,127.427223 159.071671,127.427223 152.186081,127.427223   C149.747284,153.028214 147.330276,178.400589 144.912018,203.786148   C149.617813,203.786148 153.672745,203.786148 157.746933,203.786148   C158.259796,197.358353 158.745453,191.271347 159.232803,185.163239   C161.485153,185.163239 163.394882,185.163239 165.518311,185.163239   C166.052689,191.607834 166.566818,197.808350 167.061356,203.772537   C171.719452,203.772537 175.781540,203.772537 179.864609,203.772537   C177.807693,181.874771 175.786026,160.352325 173.664917,137.922958  M48.982559,201.340454   C50.149124,202.240784 51.282467,203.865601 52.487785,203.920868   C59.056271,204.222076 65.691986,204.595001 72.191055,203.892715   C74.033455,203.693634 76.711952,200.075729 76.905823,197.843262   C77.517151,190.803574 77.131233,183.677277 77.131233,176.481415   C73.162926,176.481415 69.117950,176.481415 64.861992,176.481415   C64.861992,181.644150 65.031685,186.479218 64.746635,191.287323   C64.672295,192.541183 63.181198,193.711075 62.340797,194.919525   C61.669910,193.729736 60.424088,192.544495 60.414631,191.349472   C60.278835,174.191040 60.259457,157.030838 60.404747,139.872711   C60.415276,138.629837 61.914818,137.399567 62.722061,136.163437   C63.440689,137.497757 64.679535,138.794556 64.779007,140.173538   C65.061264,144.086761 64.877945,148.033600 64.877945,151.962494   C69.423920,151.962494 73.359840,151.962494 77.748581,151.962494   C77.748581,149.290054 77.748528,146.834610 77.748589,144.379166   C77.749001,127.497925 76.382423,126.124786 59.616692,126.160385   C49.753147,126.181328 47.007015,128.767273 46.970558,138.459900   C46.902878,156.454163 46.875301,174.449310 47.009624,192.442764   C47.030117,195.188248 48.007065,197.926620 48.982559,201.340454  M285.351624,185.499115   C285.351624,191.611511 285.351624,197.723892 285.351624,203.800888   C293.594849,203.800888 301.305542,203.800888 308.907227,203.800888   C308.907227,200.299011 308.907227,197.181976 308.907227,193.633667   C305.604462,193.633667 302.525513,193.633667 299.335693,193.633667   C299.335693,185.663040 299.335693,178.138931 299.335693,170.184174   C302.396027,170.184174 305.131378,170.184174 307.811218,170.184174   C307.811218,166.502228 307.811218,163.267410 307.811218,159.637268   C304.754669,159.637268 302.004639,159.637268 299.294250,159.637268   C299.294250,152.160843 299.294250,145.094238 299.294250,137.623428   C302.703613,137.623428 305.792969,137.623428 308.824097,137.623428   C308.824097,133.955093 308.824097,130.704132 308.824097,127.404541   C300.970642,127.404541 293.411865,127.404541 285.354584,127.404541   C285.354584,146.618408 285.354584,165.558884 285.351624,185.499115  M98.441231,204.108780   C100.865952,204.108780 103.290680,204.108780 105.739532,204.108780   C105.739532,200.371933 105.739532,197.272919 105.739532,193.712341   C102.451218,193.712341 99.372581,193.712341 96.149307,193.712341   C96.149307,185.692886 96.149307,178.144257 96.149307,170.203247   C99.197784,170.203247 101.942772,170.203247 104.729630,170.203247   C104.729630,166.562744 104.729630,163.326660 104.729630,159.702728   C101.686874,159.702728 98.929077,159.702728 96.076080,159.702728   C96.076080,152.232315 96.076080,145.159302 96.076080,137.656769   C99.422279,137.656769 102.501953,137.656769 105.623772,137.656769   C105.623772,133.985504 105.623772,130.751953 105.623772,127.452255   C97.755089,127.452255 90.192360,127.452255 82.619698,127.452255   C82.619698,153.126923 82.619698,178.491974 82.619698,204.107468   C87.818596,204.107468 92.639465,204.107468 98.441231,204.108780  M275.048767,144.576401   C275.048767,142.453094 275.048767,140.329788 275.048767,137.807434   C277.548920,137.807434 279.626648,137.807434 281.956238,137.807434   C281.956238,134.166336 281.956238,130.926102 281.956238,127.418030   C272.757660,127.418030 263.705933,127.418030 254.415894,127.418030   C254.415894,130.859253 254.415894,134.087143 254.415894,137.555573   C256.864990,137.750153 259.101105,137.927811 261.819977,138.143814   C261.819977,160.216187 261.819977,182.052261 261.819977,203.777832   C266.550629,203.777832 270.763611,203.777832 275.055511,203.777832   C275.055511,184.130325 275.055511,164.845764 275.048767,144.576401  M287.911621,102.840546   C288.416107,103.433708 289.450226,104.418365 289.344910,104.560814   C287.964203,106.428810 286.540161,108.296562 284.892914,109.928062   C282.587494,112.211441 282.561371,114.084885 285.584076,115.923492   C287.154816,114.014732 288.576294,111.932304 290.361084,110.231041   C291.785736,108.873009 293.548157,107.262291 295.341431,107.000107   C304.465088,105.666161 307.454529,99.375114 302.201447,91.958603   C301.550140,91.039108 300.831299,90.167480 299.960663,89.035614   C293.109406,93.815475 286.515594,98.530609 279.793427,103.054962   C276.637360,105.179153 277.988739,106.524239 280.137909,108.186119   C282.614288,106.457458 284.920868,104.847313 287.911621,102.840546  M293.766632,87.186340   C295.386261,83.372131 294.255585,80.281731 290.978088,78.086441   C287.589508,75.816765 284.687622,77.318710 282.027771,79.758415   C278.718719,82.793571 275.341827,85.754616 272.022675,88.778893   C268.789917,91.724442 268.423462,95.030525 271.160522,98.454033   C273.704071,101.635551 277.483429,102.031532 280.841309,99.190056   C285.146423,95.546989 289.175873,91.578148 293.766632,87.186340  M152.789169,320.701813   C152.440598,317.140289 152.402725,314.206696 155.283981,310.888672   C160.192886,305.235748 157.386459,298.837891 150.126068,297.096832   C148.878937,296.797791 147.598923,296.635773 145.925583,296.337677   C143.906921,304.506836 141.806320,312.510895 140.081177,320.595062   C139.856339,321.648682 141.563492,323.114563 142.997787,325.365814   C144.554367,320.045532 145.559280,316.610809 146.707672,312.685638   C150.584824,317.016602 144.539642,324.268311 152.195267,326.388550   C152.574829,325.640808 152.833694,325.360077 152.843781,325.070679   C152.884338,323.906860 152.847961,322.740387 152.789169,320.701813  M215.392746,305.268677   C213.440323,297.558807 210.009262,296.326202 200.743607,300.315247   C202.637802,308.949463 204.549805,317.664886 206.548645,326.776123   C208.111450,326.354248 209.427841,325.998871 210.604996,325.681122   C209.942963,321.869781 209.346161,318.433899 208.688339,314.646790   C214.172668,316.214874 211.988068,325.882446 220.454224,323.753021   C216.378204,318.056183 213.564423,312.651947 215.392746,305.268677  M279.452515,261.796539   C273.846222,258.433777 272.004578,259.142456 265.794861,267.284821   C272.409515,273.405212 279.053833,279.553070 286.525635,286.466583   C287.291595,285.238312 287.765381,284.130585 288.536469,283.298218   C293.901001,277.507324 293.842712,274.999573 288.091431,269.695801   C285.405151,267.218567 282.716370,264.743988 279.452515,261.796539  M74.815170,284.795319   C76.037933,284.579529 77.622444,284.773621 78.416855,284.072479   C80.984077,281.806641 82.469551,282.869446 83.832779,285.242981   C80.685593,290.353180 80.685593,290.353180 84.233688,292.872833   C89.356041,285.206177 94.471352,277.550049 99.597466,269.877777   C97.958710,268.374023 96.755295,267.269714 95.366714,265.995514   C88.422501,271.264191 81.526840,276.446320 74.730286,281.755310   C74.233299,282.143524 74.453773,283.450226 74.815170,284.795319  M140.955612,300.166748   C141.619751,295.857391 139.858597,293.005707 135.617661,292.080322   C131.244629,291.126129 128.845047,293.516327 127.425087,297.423828   C125.904129,301.609314 124.164436,305.714722 122.575226,309.876129   C121.024849,313.935822 122.156395,317.089539 126.136810,318.883667   C129.977081,320.614594 133.339417,319.044983 135.200806,314.711517   C137.152817,310.167114 138.922516,305.544403 140.955612,300.166748  M183.771744,58.000351   C184.799713,57.240360 186.801697,56.325729 186.709290,55.743614   C185.360489,47.247837 183.731842,38.796490 181.916214,28.959885   C179.511093,30.344494 176.548599,31.080280 176.297516,32.351570   C174.641174,40.738113 173.568207,49.239872 172.305099,57.704075   C172.828171,58.033272 173.351242,58.362465 173.874329,58.691662   C174.905884,57.453976 176.720795,56.276268 176.821014,54.967278   C177.112793,51.156418 179.228088,51.833061 181.517593,52.225655   C182.050827,54.174633 182.526550,55.913425 183.771744,58.000351  M221.344696,305.162262   C222.435913,310.800415 223.527130,316.438599 224.618362,322.076752   C225.224091,322.241302 225.829819,322.405853 226.435547,322.570404   C226.995987,321.107086 228.184006,319.554413 227.990967,318.198334   C227.538361,315.018982 228.674789,313.921143 231.744751,314.045258   C232.684464,315.649139 233.590881,317.196198 234.612091,318.939178   C235.947571,318.418671 237.113113,317.964417 238.680893,317.353363   C234.002335,309.049286 229.474777,301.013214 224.885498,292.867645   C222.979553,293.612183 221.484497,294.196228 220.156189,294.715118   C219.990143,295.326630 219.790512,295.661316 219.835266,295.959290   C220.254227,298.749634 220.715073,301.533630 221.344696,305.162262  M103.116470,283.400787   C104.580002,282.634125 106.043533,281.867493 107.507065,281.100830   C107.507065,283.119690 107.507065,285.138519 107.507065,288.041168   C107.540398,288.063080 108.559456,288.732880 109.622368,289.431549   C110.236259,288.673035 110.696754,288.188507 111.061363,287.640167   C113.874275,283.409851 113.520958,280.229706 109.905586,277.725616   C106.109497,275.096313 102.985344,276.256470 100.442245,279.658508   C97.555565,283.520142 94.676331,287.394348 91.977158,291.387024   C89.447159,295.129486 90.039879,298.600067 93.322502,300.951660   C96.495766,303.224915 100.024063,302.534821 102.868752,299.043884   C103.552078,298.205353 104.129776,297.280731 104.891960,296.203644   C103.579132,295.304871 102.559708,294.606964 101.486580,293.872284   C100.810425,294.656708 100.477966,295.350647 99.937210,295.609650   C98.538094,296.279755 97.047096,296.758057 95.592789,297.312958   C95.818314,295.846802 95.631844,294.126556 96.349014,292.963562   C98.262566,289.860596 100.564583,286.997162 103.116470,283.400787  M63.403904,106.054985   C66.546501,108.219421 69.560104,110.612198 72.869354,112.481644   C75.945076,114.219162 78.962120,113.691757 81.229446,110.688698   C83.466072,107.726295 83.336899,104.804909 80.782997,102.165413   C79.657631,101.002327 78.177353,100.182632 76.561844,98.987839   C75.721893,100.223663 75.030342,101.241142 74.280731,102.344048   C74.950356,102.902496 75.599525,103.216225 75.892418,103.732185   C76.672287,105.106049 77.298744,106.567009 77.986198,107.993332   C76.412224,107.869522 74.533470,108.253929 73.321220,107.526939   C69.631943,105.314453 66.126747,102.767548 62.720039,100.130981   C61.886513,99.485886 61.703262,98.000580 61.221035,96.901573   C62.498028,96.717339 63.789005,96.331772 65.047127,96.419167   C65.895454,96.478096 66.697418,97.204514 68.436180,98.108711   C68.436180,96.027451 68.997513,94.216766 68.336319,93.417816   C65.841751,90.403534 61.250744,90.526428 58.629856,93.334671   C55.945866,96.210518 56.150143,100.363434 59.187649,103.010300   C60.309238,103.987663 61.591022,104.781197 63.403904,106.054985  M273.354126,291.303864   C271.268524,289.814911 269.182922,288.325989 267.084473,286.827850   C269.813934,284.282379 271.117523,283.066650 272.523865,281.755127   C271.571167,280.663269 270.838257,279.823303 269.986359,278.846985   C268.328156,280.088165 266.904236,281.153992 265.225342,282.410645   C263.640869,280.561859 262.172089,278.848053 260.562775,276.970245   C262.696320,275.094055 264.501068,273.506989 266.580048,271.678772   C265.432495,270.421082 264.667480,269.582642 263.833679,268.668854   C260.488220,271.458557 257.573944,273.888733 254.441879,276.500519   C260.494324,283.784973 266.314301,290.789581 272.255463,297.940094   C275.457306,295.278534 278.359528,292.866058 281.516083,290.242126   C280.537659,289.076721 279.739319,288.125793 278.852539,287.069489   C277.098816,288.480530 275.561035,289.717773 273.354126,291.303864  M209.628494,32.926140   C209.156067,33.322262 208.370056,33.645103 208.257828,34.125397   C206.300995,42.499275 204.426788,50.892464 202.451981,59.647602   C203.947372,59.997635 205.126312,60.273594 206.510025,60.597485   C207.042389,58.565590 207.504913,56.831116 207.950150,55.092213   C208.386230,53.389015 208.804703,51.681309 209.212051,50.051018   C216.678223,50.844299 218.882111,49.255398 219.978500,42.695786   C220.894928,37.212894 219.364090,35.282444 212.844223,33.686642   C212.038818,33.489510 211.240219,33.264515 209.628494,32.926140  M203.450409,38.479343   C202.825745,31.806810 199.508377,29.887499 190.931107,31.315590   C189.987366,39.999809 189.040451,48.713116 188.064728,57.691540   C189.202209,57.921562 191.230026,58.419819 191.258286,58.324600   C192.293655,54.836220 193.143433,51.292755 194.015106,47.771164   C201.191681,47.675205 202.555695,46.427235 203.450409,38.479343  M172.134109,307.658997   C173.097565,305.623718 174.061020,303.588440 175.081406,301.432861   C167.756592,299.343903 169.865906,307.069000 166.520309,308.876465   C163.204071,300.072357 163.204071,300.072357 160.766159,300.239075   C161.676910,309.278687 162.589844,318.339813 163.546143,327.831451   C163.887085,327.848114 165.123489,327.908539 165.222672,327.913361   C167.586731,321.005402 169.746841,314.693420 172.134109,307.658997  M123.703667,65.622734   C122.895210,64.028267 122.086754,62.433800 121.377281,61.034554   C122.881760,58.870907 128.635376,59.092857 124.265648,54.663612   C122.609009,55.355606 121.010666,56.023247 119.230972,56.766640   C118.070992,54.289165 117.052071,52.112961 116.018539,49.905552   C118.330887,48.620564 120.291931,47.530796 122.462120,46.324806   C121.708038,45.012589 121.147804,44.037685 120.482346,42.879688   C116.988480,44.650169 113.624641,46.354752 110.067917,48.157082   C114.250816,56.559006 118.279343,64.650826 122.417465,72.962807   C123.777199,72.246475 124.878845,71.666115 126.176994,70.982224   C125.372116,69.262032 124.686172,67.796036 123.703667,65.622734  M72.337234,269.847137   C75.855865,265.335999 76.796089,271.178802 79.903076,271.791321   C80.360649,271.214081 81.058090,270.334259 81.768219,269.438385   C80.610992,267.784821 79.598137,266.337524 78.460823,264.712402   C80.494926,262.983032 82.327957,261.424622 84.178070,259.851654   C86.022972,261.883301 87.548218,263.562927 89.170654,265.349579   C90.307892,264.409180 91.161758,263.703094 92.187004,262.855316   C89.583969,259.751190 87.163368,256.864624 84.580177,253.784164   C77.466156,259.770630 70.535179,265.603058 63.397358,271.609558   C64.468506,272.819580 65.304428,273.763885 66.250137,274.832214   C68.207993,273.212921 69.979485,271.747742 72.337234,269.847137  M278.000000,73.247131   C279.565735,73.665970 281.131500,74.084801 282.884399,74.553703   C283.469727,73.884178 284.191284,73.058861 285.112762,72.004837   C281.527588,68.888214 278.219055,66.012093 274.910522,63.135967   C274.351776,63.374138 273.793060,63.612309 273.234314,63.850475   C273.668335,65.866302 274.102386,67.882133 274.605194,70.217323   C269.964081,75.529434 264.994690,81.217285 259.843079,87.113708   C261.321228,88.121880 262.349274,88.823059 263.471161,89.588234   C268.269196,84.187325 272.888031,78.988182 278.000000,73.247131  M92.059021,64.683731   C93.861641,62.929893 95.199440,63.066509 96.695320,65.289192   C100.221397,70.528481 103.977188,75.613419 107.659317,80.746964   C107.921600,81.112625 108.340660,81.365829 108.857040,81.821556   C109.877945,80.985214 110.849579,80.189240 111.921631,79.310997   C107.374664,72.869705 102.991341,66.660233 98.585892,60.419418   C99.856712,59.226933 100.810822,58.331635 101.757919,57.442924   C98.989960,53.772747 97.754387,54.235661 88.041565,63.043129   C89.195137,63.703484 90.294334,64.332710 92.059021,64.683731  M195.942673,324.297333   C195.352554,317.891235 194.762436,311.485138 194.163483,304.983307   C195.786850,304.500793 197.161926,304.092102 198.513809,303.690308   C197.779846,299.880737 197.769958,299.805664 187.879135,301.108337   C186.679688,301.266296 185.656097,302.759430 184.550995,303.633728   C184.827805,304.076813 185.104630,304.519867 185.381454,304.962952   C186.782043,305.047394 188.182648,305.131836 189.756607,305.226715   C190.495087,313.051971 191.205292,320.577576 191.916061,328.109161   C194.606812,328.527832 196.649261,328.595886 195.942673,324.297333  M119.673279,296.208038   C120.613304,294.501587 121.553322,292.795166 122.524231,291.032654   C124.032463,291.680481 125.310493,292.229462 126.650772,292.805145   C127.286156,291.486725 127.764076,290.495026 128.338318,289.303436   C124.383171,287.145020 120.654366,285.110138 117.131058,283.187378   C112.729378,286.341614 116.958870,287.398926 118.455505,289.013977   C114.711311,295.926086 111.105621,302.582520 107.372093,309.474945   C108.811584,310.182526 109.930885,310.732727 111.286461,311.399048   C114.041512,306.353851 116.648262,301.580200 119.673279,296.208038  M217.117447,63.164387   C220.629471,64.309029 224.141495,65.453667 227.653519,66.598305   C228.008606,65.768173 228.363708,64.938042 228.718796,64.107910   C226.564896,62.856876 224.410995,61.605843 222.139038,60.286243   C224.615097,53.165955 227.112152,45.985310 229.720474,38.484722   C228.188034,37.958637 226.917328,37.522404 225.486725,37.031281   C222.499313,45.788815 219.665314,54.096645 217.117447,63.164387  M233.851990,66.377892   C237.083939,58.999493 240.315872,51.621094 243.665405,43.974258   C242.117828,43.335209 240.979919,42.865326 239.573776,42.284687   C235.818085,50.827385 232.188553,59.083107 228.559021,67.338829   C228.870514,67.800827 229.181992,68.262817 229.493484,68.724815   C230.813034,68.161530 232.132568,67.598244 233.851990,66.377892  M129.933182,45.622379   C129.144516,43.824219 128.355850,42.026062 127.605759,40.315868   C124.417297,40.762634 123.383469,41.785572 124.821991,44.954060   C127.694595,51.281265 130.246399,57.767494 132.632172,64.297119   C133.969742,67.957932 135.556580,67.518860 137.873642,65.427025   C135.244370,58.948040 132.688431,52.649734 129.933182,45.622379  M244.969421,306.623718   C242.448547,301.423401 239.808197,296.276428 237.452774,291.002228   C236.095108,287.962189 234.600494,287.810059 232.188217,290.235718   C235.729538,297.613159 239.180756,305.085907 242.973267,312.381195   C243.507233,313.408356 245.709351,313.568329 247.139328,314.129730   C247.365143,313.643097 247.590958,313.156494 247.816757,312.669891   C246.979248,310.897308 246.141724,309.124756 244.969421,306.623718  M119.426003,74.926765   C119.552277,74.342911 119.982178,73.581184 119.759796,73.201569   C115.661255,66.205185 111.580894,59.192665 107.198280,52.375389   C106.673508,51.559093 104.416321,51.856510 101.746826,51.454861   C106.875366,60.052059 111.043907,67.182373 115.425888,74.179031   C115.896027,74.929703 117.608658,74.902199 119.426003,74.926765  M161.906891,83.940186   C163.640442,84.952988 165.374008,85.965790 166.582321,86.671730   C168.379669,85.340027 170.386230,83.853302 171.843643,82.773468   C171.014603,80.774345 170.064957,78.484390 169.392258,76.862259   C167.083939,76.862259 164.760086,76.862259 163.123245,76.862259   C162.473358,79.184196 161.804214,81.574951 161.906891,83.940186  M196.763626,274.876953   C196.328949,273.935638 195.894257,272.994324 195.459579,272.053009   C195.046219,275.967407 192.429123,276.681671 190.023590,276.371277   C190.802643,279.011292 191.515076,281.425537 192.092346,283.381775   C194.233826,283.252045 196.860229,283.092926 199.007034,282.962860   C199.593735,280.873474 200.284668,278.412933 200.952133,276.035950   C199.994339,275.925568 198.540955,275.758087 196.763626,274.876953  M143.113632,81.850746   C140.845535,83.003662 138.577423,84.156578 136.590607,85.166512   C136.700745,86.817780 136.868851,89.338043 136.994080,91.215469   C139.178253,92.101799 141.534164,93.057816 142.785675,93.565674   C144.309998,91.650734 145.781036,89.802742 146.570740,88.810669   C145.677139,86.559502 144.740677,84.200310 143.113632,81.850746  M139.441681,273.682648   C138.884048,274.323822 138.326416,274.964996 138.340851,274.948395   C140.972855,276.348175 143.435287,277.657806 145.741501,278.884338   C145.857529,278.011383 146.049652,276.565765 146.226685,275.233765   C147.878281,274.661194 149.299698,274.168396 149.877136,273.968201   C148.567871,271.636017 147.369598,269.501526 146.490402,267.935364   C144.478424,268.186371 142.073929,268.486359 139.949570,268.751404   C139.949570,269.882904 139.949570,271.526184 139.441681,273.682648  M241.015427,253.348938   C240.413803,253.481766 239.360886,253.488434 239.282837,253.767654   C238.721603,255.774948 238.358215,257.837555 237.963425,259.732117   C239.174118,260.839111 241.167664,262.661865 242.582077,263.955109   C244.538071,262.772491 246.891449,261.349609 248.704437,260.253448   C247.984894,258.437408 247.029984,256.027283 246.182526,253.888397   C244.959579,253.888397 243.257523,253.888397 241.015427,253.348938  M224.319046,270.868073   C224.913315,269.818268 225.507568,268.768433 226.101837,267.718628   C222.081314,270.869720 220.629669,266.627930 219.320892,265.744415   C217.668808,268.006012 216.194901,270.023712 215.217545,271.361664   C216.412689,273.294861 217.745575,275.450836 218.673660,276.952057   C220.908356,276.309723 223.355530,275.606323 225.907242,274.872833   C225.463898,274.079315 224.761612,272.822357 224.319046,270.868073  M191.381653,87.266090   C193.314407,85.792015 195.247147,84.317940 196.747040,83.173988   C196.899445,81.017410 197.068436,78.626160 197.185608,76.968079   C194.774216,76.504250 192.048431,75.979950 190.145691,75.613960   C189.011337,77.758621 187.878159,79.901093 187.271912,81.047279   C188.504807,82.949463 189.725433,84.832703 191.381653,87.266090  M239.743134,103.153748   C241.105072,103.929916 242.467010,104.706085 243.040314,105.032814   C244.388702,102.676399 245.727051,100.337547 246.543839,98.910156   C244.728256,97.212822 242.827957,95.436302 241.393829,94.095573   C239.647629,95.159698 237.334869,96.569092 235.578094,97.639671   C235.998734,99.083221 236.334671,100.765320 237.021881,102.288994   C237.243271,102.779892 238.389420,102.853714 239.743134,103.153748  M223.346451,85.458443   C223.393707,84.977936 223.595383,84.125999 223.465363,84.071953   C221.036118,83.062172 218.567474,82.147163 216.856339,81.496971   C215.413635,83.082687 213.671921,84.997078 212.344177,86.456436   C213.358505,88.101997 214.682663,90.250214 215.560669,91.674591   C217.609604,91.464958 219.826813,91.238113 221.618790,91.054771   C221.935959,89.635513 222.344315,87.808220 223.346451,85.458443  M112.844406,99.991676   C113.925346,101.819359 115.006279,103.647041 116.081490,105.465034   C117.555649,105.465034 119.659180,105.465034 121.166374,105.465034   C122.426041,103.543411 123.601135,101.750816 124.399620,100.532730   C122.669792,98.873314 120.822815,97.101509 119.630554,95.957779   C117.354874,97.025604 114.891739,98.181389 112.844406,99.991676  M165.119217,283.201904   C167.359787,283.377777 169.600342,283.553650 171.211166,283.680084   C172.614075,281.822937 174.085876,279.874603 175.049072,278.599518   C173.451309,276.904022 171.755692,275.104675 170.285187,273.544220   C168.864471,274.378967 166.723557,275.636902 165.667603,276.257324   C165.133682,278.966888 164.738281,280.973541 165.119217,283.201904  z"
   id="path10721" />
<path
   fill="#0C67D3"
   opacity="1.000000"
   stroke="none"
   d=" M146.000031,217.327911   C200.438858,217.328247 254.377686,217.328247 308.704895,217.328247   C308.704895,221.973480 308.704895,226.176636 308.704895,230.729843   C307.068878,230.833862 305.622040,231.006393 304.175201,231.006302   C221.046646,231.001755 137.918091,230.999039 54.789570,230.938354   C47.175102,230.932800 46.778107,232.751343 47.012745,223.251984   C47.053505,221.601837 47.018517,219.949829 47.018517,217.327576   C80.066399,217.327576 112.783218,217.327576 146.000031,217.327911  z"
   id="path10723"
   style="fill:#d24851;fill-opacity:1" />
<path
   fill="#F5F5F5"
   opacity="1.000000"
   stroke="none"
   d=" M128.190720,188.005402   C128.191177,184.013626 128.429749,180.493866 128.068970,177.036636   C127.934143,175.744568 126.401970,174.598297 125.506927,173.385559   C125.055504,173.644440 124.604073,173.903320 124.152649,174.162201   C124.152649,183.932053 124.152649,193.701904 124.152649,203.791412   C119.626144,203.791412 115.407524,203.791412 110.859200,203.791412   C110.859200,178.414490 110.859200,153.062653 110.859200,127.406204   C118.274269,127.406204 125.568939,127.017830 132.800674,127.525772   C138.881821,127.952888 141.530121,131.351944 141.754166,138.036530   C141.982590,144.851776 141.943130,151.686279 141.720261,158.502533   C141.586868,162.582291 140.618225,166.497452 135.747665,168.444061   C140.902084,171.164154 141.826447,175.662231 141.803879,180.629410   C141.769241,188.254349 141.794769,195.879562 141.794769,203.816193   C137.227158,203.816193 132.993378,203.816193 128.190689,203.816193   C128.190689,198.708191 128.190689,193.605240 128.190720,188.005402  M124.011276,141.743134   C124.011276,149.068390 124.011276,156.393646 124.011276,163.718903   C124.709496,163.904526 125.407715,164.090134 126.105934,164.275757   C126.809868,162.855011 128.071503,161.453690 128.121765,160.010208   C128.346298,153.560257 128.350327,147.093750 128.118134,140.644608   C128.074356,139.428864 126.592796,138.264877 125.774696,137.077011   C125.184784,138.319443 124.594872,139.561874 124.011276,141.743134  z"
   id="path10725" />
<path
   fill="#F9F9F9"
   opacity="1.000000"
   stroke="none"
   d=" M247.867004,203.015076   C240.375076,203.580750 233.168167,204.464401 226.044556,204.018127   C221.631531,203.741669 220.141144,199.301239 220.114319,195.319946   C219.979706,175.334915 219.941422,155.346939 220.161240,135.363205   C220.227264,129.360382 223.289352,126.616119 229.257401,126.273590   C233.241516,126.044914 237.263504,126.007957 241.242844,126.272186   C247.563950,126.691910 250.875427,129.817444 250.933548,136.055603   C251.118195,155.875092 251.112793,175.698303 250.898560,195.517029   C250.872314,197.944626 249.132751,200.353699 247.867004,203.015076  M237.905243,174.499298   C237.915192,163.195084 238.004227,151.889709 237.840485,140.588013   C237.818680,139.083221 236.514557,137.597015 235.804306,136.102219   C234.910965,137.607681 233.255951,139.105637 233.241013,140.619751   C233.075455,157.406967 233.116226,174.197144 233.274902,190.984863   C233.287552,192.324310 234.589539,193.651566 235.292358,194.984497   C236.160477,193.642670 237.695801,192.340134 237.777542,190.951996   C238.079926,185.816223 237.902435,180.652191 237.905243,174.499298  z"
   id="path10727" />
<path
   fill="#F7F7F7"
   opacity="1.000000"
   stroke="none"
   d=" M197.801941,153.222229   C199.234665,144.495239 200.609177,136.146225 202.033096,127.497002   C206.274033,127.497002 210.343384,127.497002 215.012894,127.497002   C213.980927,133.493027 213.601334,139.644424 211.807510,145.351273   C207.171997,160.098648 210.191406,174.157562 214.368423,188.281525   C215.865265,193.342850 216.966797,198.521103 218.319672,203.929581   C213.605698,203.929581 209.313675,203.929581 204.523209,203.929581   C202.114990,193.358566 199.681717,182.677582 197.248459,171.996597   C196.945526,172.045105 196.642593,172.093628 196.339661,172.142136   C196.339661,182.640121 196.339661,193.138092 196.339661,203.884567   C191.925262,203.884567 187.817566,203.884567 183.363922,203.884567   C183.363922,178.594025 183.363922,153.218552 183.363922,127.504578   C187.335480,127.504578 191.402863,127.504578 195.879944,127.504578   C195.879944,136.794678 195.879944,146.191010 195.879944,157.068329   C196.969635,155.040634 197.356674,154.320404 197.801941,153.222229  z"
   id="path10729" />
<path
   fill="#F6F6F6"
   opacity="1.000000"
   stroke="none"
   d=" M173.714630,138.376419   C175.786026,160.352325 177.807693,181.874771 179.864609,203.772537   C175.781540,203.772537 171.719452,203.772537 167.061356,203.772537   C166.566818,197.808350 166.052689,191.607834 165.518311,185.163239   C163.394882,185.163239 161.485153,185.163239 159.232803,185.163239   C158.745453,191.271347 158.259796,197.358353 157.746933,203.786148   C153.672745,203.786148 149.617813,203.786148 144.912018,203.786148   C147.330276,178.400589 149.747284,153.028214 152.186081,127.427223   C159.071671,127.427223 165.639328,127.427223 172.478577,127.427223   C172.889252,131.060532 173.277084,134.491745 173.714630,138.376419  M160.939941,161.308380   C160.621689,165.523315 160.303452,169.738266 159.954300,174.362427   C161.907059,174.208420 163.282715,174.099945 164.823212,173.978455   C164.156235,165.787338 163.523972,158.022629 162.891724,150.257919   C162.543198,150.251053 162.194656,150.244186 161.846130,150.237320   C161.564972,153.620956 161.283813,157.004593 160.939941,161.308380  z"
   id="path10731" />
<path
   fill="#F7F7F7"
   opacity="1.000000"
   stroke="none"
   d=" M48.762096,201.004364   C48.007065,197.926620 47.030117,195.188248 47.009624,192.442764   C46.875301,174.449310 46.902878,156.454163 46.970558,138.459900   C47.007015,128.767273 49.753147,126.181328 59.616692,126.160385   C76.382423,126.124786 77.749001,127.497925 77.748589,144.379166   C77.748528,146.834610 77.748581,149.290054 77.748581,151.962494   C73.359840,151.962494 69.423920,151.962494 64.877945,151.962494   C64.877945,148.033600 65.061264,144.086761 64.779007,140.173538   C64.679535,138.794556 63.440689,137.497757 62.722061,136.163437   C61.914818,137.399567 60.415276,138.629837 60.404747,139.872711   C60.259457,157.030838 60.278835,174.191040 60.414631,191.349472   C60.424088,192.544495 61.669910,193.729736 62.340797,194.919525   C63.181198,193.711075 64.672295,192.541183 64.746635,191.287323   C65.031685,186.479218 64.861992,181.644150 64.861992,176.481415   C69.117950,176.481415 73.162926,176.481415 77.131233,176.481415   C77.131233,183.677277 77.517151,190.803574 76.905823,197.843262   C76.711952,200.075729 74.033455,203.693634 72.191055,203.892715   C65.691986,204.595001 59.056271,204.222076 52.487785,203.920868   C51.282467,203.865601 50.149124,202.240784 48.762096,201.004364  z"
   id="path10733" />
<path
   fill="#F3F3F3"
   opacity="1.000000"
   stroke="none"
   d=" M285.353088,184.999237   C285.354584,165.558884 285.354584,146.618408 285.354584,127.404541   C293.411865,127.404541 300.970642,127.404541 308.824097,127.404541   C308.824097,130.704132 308.824097,133.955093 308.824097,137.623428   C305.792969,137.623428 302.703613,137.623428 299.294250,137.623428   C299.294250,145.094238 299.294250,152.160843 299.294250,159.637268   C302.004639,159.637268 304.754669,159.637268 307.811218,159.637268   C307.811218,163.267410 307.811218,166.502228 307.811218,170.184174   C305.131378,170.184174 302.396027,170.184174 299.335693,170.184174   C299.335693,178.138931 299.335693,185.663040 299.335693,193.633667   C302.525513,193.633667 305.604462,193.633667 308.907227,193.633667   C308.907227,197.181976 308.907227,200.299011 308.907227,203.800888   C301.305542,203.800888 293.594849,203.800888 285.351624,203.800888   C285.351624,197.723892 285.351624,191.611511 285.353088,184.999237  z"
   id="path10735" />
<path
   fill="#F2F2F2"
   opacity="1.000000"
   stroke="none"
   d=" M97.950790,204.108124   C92.639465,204.107468 87.818596,204.107468 82.619698,204.107468   C82.619698,178.491974 82.619698,153.126923 82.619698,127.452255   C90.192360,127.452255 97.755089,127.452255 105.623772,127.452255   C105.623772,130.751953 105.623772,133.985504 105.623772,137.656769   C102.501953,137.656769 99.422279,137.656769 96.076080,137.656769   C96.076080,145.159302 96.076080,152.232315 96.076080,159.702728   C98.929077,159.702728 101.686874,159.702728 104.729630,159.702728   C104.729630,163.326660 104.729630,166.562744 104.729630,170.203247   C101.942772,170.203247 99.197784,170.203247 96.149307,170.203247   C96.149307,178.144257 96.149307,185.692886 96.149307,193.712341   C99.372581,193.712341 102.451218,193.712341 105.739532,193.712341   C105.739532,197.272919 105.739532,200.371933 105.739532,204.108780   C103.290680,204.108780 100.865952,204.108780 97.950790,204.108124  z"
   id="path10737" />
<path
   fill="#F8F8F8"
   opacity="1.000000"
   stroke="none"
   d=" M275.052124,145.068802   C275.055511,164.845764 275.055511,184.130325 275.055511,203.777832   C270.763611,203.777832 266.550629,203.777832 261.819977,203.777832   C261.819977,182.052261 261.819977,160.216187 261.819977,138.143814   C259.101105,137.927811 256.864990,137.750153 254.415894,137.555573   C254.415894,134.087143 254.415894,130.859253 254.415894,127.418030   C263.705933,127.418030 272.757660,127.418030 281.956238,127.418030   C281.956238,130.926102 281.956238,134.166336 281.956238,137.807434   C279.626648,137.807434 277.548920,137.807434 275.048767,137.807434   C275.048767,140.329788 275.048767,142.453094 275.052124,145.068802  z"
   id="path10739" />
<path
   fill="#ECECEC"
   opacity="1.000000"
   stroke="none"
   d=" M253.886444,290.592133   C252.066605,287.483246 250.246765,284.374329 248.275772,281.007233   C249.412262,280.248596 250.434418,279.566254 251.756073,278.684021   C256.703827,286.519226 261.470093,294.067017 266.600342,302.191193   C259.267731,306.964569 257.540771,297.131500 251.740967,297.115814   C253.922913,300.687195 255.915070,303.947937 258.044250,307.432922   C256.848785,308.204468 255.791351,308.886932 254.439636,309.759338   C249.549408,301.997498 244.782822,294.431885 239.756699,286.454346   C241.035309,285.515930 242.262283,284.615417 243.602859,283.631500   C246.590851,286.260620 249.321899,288.663666 252.554504,291.500122   C253.332855,291.486389 253.609650,291.039246 253.886444,290.592133  z"
   id="path10741" />
<path
   fill="#EBEBEB"
   opacity="1.000000"
   stroke="none"
   d=" M287.569519,103.038857   C284.920868,104.847313 282.614288,106.457458 280.137909,108.186119   C277.988739,106.524239 276.637360,105.179153 279.793427,103.054962   C286.515594,98.530609 293.109406,93.815475 299.960663,89.035614   C300.831299,90.167480 301.550140,91.039108 302.201447,91.958603   C307.454529,99.375114 304.465088,105.666161 295.341431,107.000107   C293.548157,107.262291 291.785736,108.873009 290.361084,110.231041   C288.576294,111.932304 287.154816,114.014732 285.584076,115.923492   C282.561371,114.084885 282.587494,112.211441 284.892914,109.928062   C286.540161,108.296562 287.964203,106.428810 289.344910,104.560814   C289.450226,104.418365 288.416107,103.433708 287.569519,103.038857  M300.667511,97.113892   C296.505951,93.152092 295.744598,99.306252 292.715149,99.247299   C295.846954,103.403328 297.766327,102.943298 300.667511,97.113892  z"
   id="path10743" />
<path
   fill="#EAEAEA"
   opacity="1.000000"
   stroke="none"
   d=" M150.974976,60.083160   C151.282547,58.728046 152.033905,57.299633 151.824203,56.029942   C150.637131,48.842529 149.219849,41.693142 147.891953,34.589661   C157.165192,30.224520 161.286209,32.301903 162.902222,41.956028   C163.312912,44.409431 163.704010,46.866161 164.124649,49.317844   C165.681351,58.390900 160.438950,62.856003 151.242737,60.296783   C150.992157,60.523983 150.974976,60.083160 150.974976,60.083160  M155.588165,51.914093   C156.542755,53.254013 157.497345,54.593929 158.451935,55.933849   C158.975296,54.260033 160.048355,52.539284 159.910263,50.921951   C159.600677,47.296421 158.591431,43.736858 158.052139,40.122818   C157.593445,37.049107 156.085068,36.222240 152.937088,37.397625   C153.751816,42.017399 154.551285,46.550648 155.588165,51.914093  z"
   id="path10745" />
<path
   fill="#E9E9E9"
   opacity="1.000000"
   stroke="none"
   d=" M293.545349,87.468002   C289.175873,91.578148 285.146423,95.546989 280.841309,99.190056   C277.483429,102.031532 273.704071,101.635551 271.160522,98.454033   C268.423462,95.030525 268.789917,91.724442 272.022675,88.778893   C275.341827,85.754616 278.718719,82.793571 282.027771,79.758415   C284.687622,77.318710 287.589508,75.816765 290.978088,78.086441   C294.255585,80.281731 295.386261,83.372131 293.545349,87.468002  M280.820099,93.341911   C283.511383,90.903839 286.311035,88.570129 288.824005,85.960312   C289.523468,85.233902 289.374237,83.690292 289.614349,82.521591   C288.309387,82.507385 286.556641,81.940010 285.775208,82.572556   C281.932465,85.683060 278.264832,89.028664 274.752319,92.510071   C274.159271,93.097870 274.355011,94.861992 274.745087,95.865433   C274.891724,96.242661 276.746887,96.305878 277.606293,95.965157   C278.626007,95.560883 279.411774,94.566612 280.820099,93.341911  z"
   id="path10747" />
<path
   fill="#E8E8E8"
   opacity="1.000000"
   stroke="none"
   d=" M152.814590,321.138367   C152.847961,322.740387 152.884338,323.906860 152.843781,325.070679   C152.833694,325.360077 152.574829,325.640808 152.195267,326.388550   C144.539642,324.268311 150.584824,317.016602 146.707672,312.685638   C145.559280,316.610809 144.554367,320.045532 142.997787,325.365814   C141.563492,323.114563 139.856339,321.648682 140.081177,320.595062   C141.806320,312.510895 143.906921,304.506836 145.925583,296.337677   C147.598923,296.635773 148.878937,296.797791 150.126068,297.096832   C157.386459,298.837891 160.192886,305.235748 155.283981,310.888672   C152.402725,314.206696 152.440598,317.140289 152.814590,321.138367  M153.056259,304.535156   C152.187653,303.297119 151.319046,302.059082 149.660568,299.695190   C148.617844,303.741333 147.990295,306.176392 147.340729,308.696930   C151.674408,311.031311 152.229721,308.049286 153.056259,304.535156  z"
   id="path10749" />
<path
   fill="#EAEAEA"
   opacity="1.000000"
   stroke="none"
   d=" M215.511780,305.665283   C213.564423,312.651947 216.378204,318.056183 220.454224,323.753021   C211.988068,325.882446 214.172668,316.214874 208.688339,314.646790   C209.346161,318.433899 209.942963,321.869781 210.604996,325.681122   C209.427841,325.998871 208.111450,326.354248 206.548645,326.776123   C204.549805,317.664886 202.637802,308.949463 200.743607,300.315247   C210.009262,296.326202 213.440323,297.558807 215.511780,305.665283  M206.038971,304.655579   C206.529831,306.547607 207.020691,308.439667 207.781464,311.372131   C209.341599,309.947784 211.228714,309.001740 211.225449,308.062256   C211.219116,306.243652 210.235382,304.384308 209.370880,302.687469   C209.292542,302.533722 207.142227,303.435577 206.038971,304.655579  z"
   id="path10751" />
<path
   fill="#E7E7E7"
   opacity="1.000000"
   stroke="none"
   d=" M248.883423,71.041458   C250.435623,70.334534 252.315735,69.971146 253.481018,68.858864   C257.656281,64.873528 261.589478,60.634613 265.712311,56.390591   C267.560333,57.731407 268.872650,58.683556 270.653564,59.975700   C266.593964,68.274666 262.550903,76.539879 258.415710,84.993370   C255.842773,83.905434 253.894531,82.918999 255.967087,79.975494   C258.007294,77.077896 256.253632,75.905098 253.728867,74.986267   C252.360657,76.267776 251.042282,77.502609 249.338806,79.098152   C248.256012,77.922264 247.228577,76.806503 246.137085,74.993088   C247.009827,73.210777 247.946625,72.126122 248.883423,71.041458  z"
   id="path10753" />
<path
   fill="#ECECEC"
   opacity="1.000000"
   stroke="none"
   d=" M92.270691,90.955734   C86.915955,85.121147 81.561211,79.286560 75.661232,72.857872   C76.835114,72.022118 77.875641,71.456993 78.696114,70.664154   C81.136780,68.305687 84.021194,65.283546 87.251060,67.320496   C90.144302,69.145157 91.821381,72.865265 94.118774,75.680771   C95.378860,77.225060 96.663033,78.814445 98.205002,80.047569   C100.128624,81.585915 102.328957,82.778259 105.030762,84.520370   C98.671494,89.808159 95.940979,80.921394 90.187492,81.779121   C92.815620,84.988274 95.108810,87.788445 97.686317,90.935783   C96.697113,91.714600 95.715912,92.487114 94.262054,92.868805   C93.283165,91.970566 92.776924,91.463150 92.270691,90.955734  M86.892952,78.549294   C87.884148,77.637733 89.855293,76.164612 89.707092,75.905975   C88.763062,74.258606 87.570938,72.511185 85.997536,71.574013   C85.265678,71.138092 83.494919,72.446342 81.926231,73.071022   C83.748215,75.114761 85.055138,76.580750 86.892952,78.549294  z"
   id="path10755" />
<path
   fill="#ECECEC"
   opacity="1.000000"
   stroke="none"
   d=" M279.740631,262.032349   C282.716370,264.743988 285.405151,267.218567 288.091431,269.695801   C293.842712,274.999573 293.901001,277.507324 288.536469,283.298218   C287.765381,284.130585 287.291595,285.238312 286.525635,286.466583   C279.053833,279.553070 272.409515,273.405212 265.794861,267.284821   C272.004578,259.142456 273.846222,258.433777 279.740631,262.032349  M277.454468,272.048187   C280.233093,274.572601 283.011719,277.097015 285.790344,279.621429   C286.499176,279.111572 287.208038,278.601715 287.916870,278.091858   C287.147766,272.392792 280.948090,270.173462 277.628204,266.128357   C275.636169,263.701172 273.618744,263.435059 271.878387,266.845978   C273.567078,268.413269 275.256958,269.981659 277.454468,272.048187  z"
   id="path10757" />
<path
   fill="#EAEAEA"
   opacity="1.000000"
   stroke="none"
   d=" M74.577927,284.562622   C74.453773,283.450226 74.233299,282.143524 74.730286,281.755310   C81.526840,276.446320 88.422501,271.264191 95.366714,265.995514   C96.755295,267.269714 97.958710,268.374023 99.597466,269.877777   C94.471352,277.550049 89.356041,285.206177 84.233688,292.872833   C80.685593,290.353180 80.685593,290.353180 83.832779,285.242981   C82.469551,282.869446 80.984077,281.806641 78.416855,284.072479   C77.622444,284.773621 76.037933,284.579529 74.577927,284.562622  z"
   id="path10759" />
<path
   fill="#EDEDED"
   opacity="1.000000"
   stroke="none"
   d=" M140.863739,300.561340   C138.922516,305.544403 137.152817,310.167114 135.200806,314.711517   C133.339417,319.044983 129.977081,320.614594 126.136810,318.883667   C122.156395,317.089539 121.024849,313.935822 122.575226,309.876129   C124.164436,305.714722 125.904129,301.609314 127.425087,297.423828   C128.845047,293.516327 131.244629,291.126129 135.617661,292.080322   C139.858597,293.005707 141.619751,295.857391 140.863739,300.561340  M132.801086,309.249268   C133.993195,306.159332 135.372269,303.122467 136.272263,299.949677   C136.572372,298.891663 135.645920,297.485718 135.280182,296.238831   C134.157364,296.903717 132.457779,297.304626 132.011673,298.279297   C130.088257,302.481445 128.404251,306.808868 126.936119,311.192200   C126.585831,312.238007 127.402550,313.674713 127.682518,314.931610   C128.834778,314.338226 130.204544,313.960846 131.073410,313.085999   C131.825699,312.328552 132.009720,311.006714 132.801086,309.249268  z"
   id="path10761" />
<path
   fill="#EBEBEB"
   opacity="1.000000"
   stroke="none"
   d=" M183.387009,57.826286   C182.526550,55.913425 182.050827,54.174633 181.517593,52.225655   C179.228088,51.833061 177.112793,51.156418 176.821014,54.967278   C176.720795,56.276268 174.905884,57.453976 173.874329,58.691662   C173.351242,58.362465 172.828171,58.033272 172.305099,57.704075   C173.568207,49.239872 174.641174,40.738113 176.297516,32.351570   C176.548599,31.080280 179.511093,30.344494 181.916214,28.959885   C183.731842,38.796490 185.360489,47.247837 186.709290,55.743614   C186.801697,56.325729 184.799713,57.240360 183.387009,57.826286  z"
   id="path10763" />
<path
   fill="#E9E9E9"
   opacity="1.000000"
   stroke="none"
   d=" M221.254242,304.740875   C220.715073,301.533630 220.254227,298.749634 219.835266,295.959290   C219.790512,295.661316 219.990143,295.326630 220.156189,294.715118   C221.484497,294.196228 222.979553,293.612183 224.885498,292.867645   C229.474777,301.013214 234.002335,309.049286 238.680893,317.353363   C237.113113,317.964417 235.947571,318.418671 234.612091,318.939178   C233.590881,317.196198 232.684464,315.649139 231.744751,314.045258   C228.674789,313.921143 227.538361,315.018982 227.990967,318.198334   C228.184006,319.554413 226.995987,321.107086 226.435547,322.570404   C225.829819,322.405853 225.224091,322.241302 224.618362,322.076752   C223.527130,316.438599 222.435913,310.800415 221.254242,304.740875  z"
   id="path10765" />
<path
   fill="#EAEAEA"
   opacity="1.000000"
   stroke="none"
   d=" M102.914330,283.719635   C100.564583,286.997162 98.262566,289.860596 96.349014,292.963562   C95.631844,294.126556 95.818314,295.846802 95.592789,297.312958   C97.047096,296.758057 98.538094,296.279755 99.937210,295.609650   C100.477966,295.350647 100.810425,294.656708 101.486580,293.872284   C102.559708,294.606964 103.579132,295.304871 104.891960,296.203644   C104.129776,297.280731 103.552078,298.205353 102.868752,299.043884   C100.024063,302.534821 96.495766,303.224915 93.322502,300.951660   C90.039879,298.600067 89.447159,295.129486 91.977158,291.387024   C94.676331,287.394348 97.555565,283.520142 100.442245,279.658508   C102.985344,276.256470 106.109497,275.096313 109.905586,277.725616   C113.520958,280.229706 113.874275,283.409851 111.061363,287.640167   C110.696754,288.188507 110.236259,288.673035 109.622368,289.431549   C108.559456,288.732880 107.540398,288.063080 107.507065,288.041168   C107.507065,285.138519 107.507065,283.119690 107.507065,281.100830   C106.043533,281.867493 104.580002,282.634125 102.914330,283.719635  z"
   id="path10767" />
<path
   fill="#E8E8E8"
   opacity="1.000000"
   stroke="none"
   d=" M249.022064,70.666237   C247.946625,72.126122 247.009827,73.210777 246.047272,74.613052   C236.392212,74.059807 234.257492,70.055435 238.895767,61.573616   C240.405930,58.812088 241.891129,56.036869 243.409821,53.280075   C246.484833,47.698174 249.959579,46.235279 254.058395,48.775787   C257.896637,51.154797 258.131958,54.730831 254.597946,60.212093   C253.519485,59.726929 252.390244,59.218918 250.989609,58.588810   C251.555740,57.397041 252.300552,56.430378 252.425980,55.389118   C252.541885,54.426674 251.994186,53.384300 251.738754,52.377125   C250.743637,52.636292 249.223633,52.574772 248.837860,53.206219   C246.163712,57.583202 243.621490,62.051876 241.312668,66.630173   C240.922226,67.404366 241.862976,68.849861 242.188690,69.985214   C243.158585,69.588844 244.303986,69.393753 245.051300,68.742134   C245.875793,68.023254 246.335098,66.885521 247.071198,65.748344   C249.719574,66.519615 251.679703,67.324242 249.022064,70.666237  z"
   id="path10769" />
<path
   fill="#EAEAEA"
   opacity="1.000000"
   stroke="none"
   d=" M63.101830,105.856781   C61.591022,104.781197 60.309238,103.987663 59.187649,103.010300   C56.150143,100.363434 55.945866,96.210518 58.629856,93.334671   C61.250744,90.526428 65.841751,90.403534 68.336319,93.417816   C68.997513,94.216766 68.436180,96.027451 68.436180,98.108711   C66.697418,97.204514 65.895454,96.478096 65.047127,96.419167   C63.789005,96.331772 62.498028,96.717339 61.221035,96.901573   C61.703262,98.000580 61.886513,99.485886 62.720039,100.130981   C66.126747,102.767548 69.631943,105.314453 73.321220,107.526939   C74.533470,108.253929 76.412224,107.869522 77.986198,107.993332   C77.298744,106.567009 76.672287,105.106049 75.892418,103.732185   C75.599525,103.216225 74.950356,102.902496 74.280731,102.344048   C75.030342,101.241142 75.721893,100.223663 76.561844,98.987839   C78.177353,100.182632 79.657631,101.002327 80.782997,102.165413   C83.336899,104.804909 83.466072,107.726295 81.229446,110.688698   C78.962120,113.691757 75.945076,114.219162 72.869354,112.481644   C69.560104,110.612198 66.546501,108.219421 63.101830,105.856781  z"
   id="path10771" />
<path
   fill="#E9E9E9"
   opacity="1.000000"
   stroke="none"
   d=" M92.301758,91.348022   C92.776924,91.463150 93.283165,91.970566 93.890533,92.729462   C91.564827,96.455666 89.137985,99.930382 86.292763,104.004128   C78.984352,97.626007 72.182220,91.689728 65.397537,85.768677   C69.691467,78.084923 72.376389,76.246735 75.902382,78.940849   C74.396591,80.823235 72.891525,82.704704 71.173698,84.852150   C72.901932,86.363693 74.602409,87.850960 76.835442,89.804008   C77.965668,88.108223 78.885574,86.727989 79.708153,85.493790   C83.726929,87.670853 83.726929,87.670853 79.952835,92.594467   C81.732124,94.135704 83.536598,95.698753 85.234879,97.169815   C87.798210,95.209030 90.065521,93.474678 92.301758,91.348022  z"
   id="path10773" />
<path
   fill="#ECECEC"
   opacity="1.000000"
   stroke="none"
   d=" M273.688721,291.129456   C275.561035,289.717773 277.098816,288.480530 278.852539,287.069489   C279.739319,288.125793 280.537659,289.076721 281.516083,290.242126   C278.359528,292.866058 275.457306,295.278534 272.255463,297.940094   C266.314301,290.789581 260.494324,283.784973 254.441879,276.500519   C257.573944,273.888733 260.488220,271.458557 263.833679,268.668854   C264.667480,269.582642 265.432495,270.421082 266.580048,271.678772   C264.501068,273.506989 262.696320,275.094055 260.562775,276.970245   C262.172089,278.848053 263.640869,280.561859 265.225342,282.410645   C266.904236,281.153992 268.328156,280.088165 269.986359,278.846985   C270.838257,279.823303 271.571167,280.663269 272.523865,281.755127   C271.117523,283.066650 269.813934,284.282379 267.084473,286.827850   C269.182922,288.325989 271.268524,289.814911 273.688721,291.129456  z"
   id="path10775" />
<path
   fill="#EDEDED"
   opacity="1.000000"
   stroke="none"
   d=" M210.033478,32.989285   C211.240219,33.264515 212.038818,33.489510 212.844223,33.686642   C219.364090,35.282444 220.894928,37.212894 219.978500,42.695786   C218.882111,49.255398 216.678223,50.844299 209.212051,50.051018   C208.804703,51.681309 208.386230,53.389015 207.950150,55.092213   C207.504913,56.831116 207.042389,58.565590 206.510025,60.597485   C205.126312,60.273594 203.947372,59.997635 202.451981,59.647602   C204.426788,50.892464 206.300995,42.499275 208.257828,34.125397   C208.370056,33.645103 209.156067,33.322262 210.033478,32.989285  M215.148407,43.759850   C216.087997,40.934528 216.922516,38.162743 211.940323,37.999821   C211.324112,40.537403 210.727020,42.996288 209.731201,47.097115   C212.277679,45.871445 213.643555,45.214027 215.148407,43.759850  z"
   id="path10777" />
<path
   fill="#EBEBEB"
   opacity="1.000000"
   stroke="none"
   d=" M203.415634,38.866016   C202.555695,46.427235 201.191681,47.675205 194.015106,47.771164   C193.143433,51.292755 192.293655,54.836220 191.258286,58.324600   C191.230026,58.419819 189.202209,57.921562 188.064728,57.691540   C189.040451,48.713116 189.987366,39.999809 190.931107,31.315590   C199.508377,29.887499 202.825745,31.806810 203.415634,38.866016  M194.197128,42.776836   C197.085266,44.551659 198.527145,43.342484 198.942078,40.369946   C199.321609,37.651058 199.603409,34.866508 195.032867,35.226265   C194.715057,37.498116 194.400467,39.747047 194.197128,42.776836  z"
   id="path10779" />
<path
   fill="#E9E9E9"
   opacity="1.000000"
   stroke="none"
   d=" M150.977509,59.672874   C150.974976,60.083160 150.992157,60.523983 150.991119,60.744556   C147.574020,62.345005 144.157944,63.724884 140.264618,65.297539   C137.404572,56.139156 134.696182,47.466419 131.885437,38.465889   C135.680923,37.273632 139.272873,36.145306 143.261932,34.892235   C143.707352,36.198162 144.095551,37.336361 144.556885,38.688961   C142.163681,39.577728 140.018158,40.374516 137.522049,41.301502   C138.231186,43.619740 138.883682,45.752815 139.584900,48.045128   C141.611649,47.563671 143.336151,47.154015 145.148453,46.723499   C148.177048,51.902046 142.776520,50.783974 140.934174,52.804703   C141.625061,54.847790 142.393906,57.121426 142.912735,58.655697   C146.029205,58.890144 148.504639,59.076370 150.977509,59.672874  z"
   id="path10781" />
<path
   fill="#E9E9E9"
   opacity="1.000000"
   stroke="none"
   d=" M172.020538,308.020203   C169.746841,314.693420 167.586731,321.005402 165.222672,327.913361   C165.123489,327.908539 163.887085,327.848114 163.546143,327.831451   C162.589844,318.339813 161.676910,309.278687 160.766159,300.239075   C163.204071,300.072357 163.204071,300.072357 166.521591,308.877869   C169.865906,307.069000 167.756592,299.343903 175.081406,301.432861   C174.061020,303.588440 173.097565,305.623718 172.020538,308.020203  z"
   id="path10783" />
<path
   fill="#EAEAEA"
   opacity="1.000000"
   stroke="none"
   d=" M123.851944,65.976387   C124.686172,67.796036 125.372116,69.262032 126.176994,70.982224   C124.878845,71.666115 123.777199,72.246475 122.417465,72.962807   C118.279343,64.650826 114.250816,56.559006 110.067917,48.157082   C113.624641,46.354752 116.988480,44.650169 120.482346,42.879688   C121.147804,44.037685 121.708038,45.012589 122.462120,46.324806   C120.291931,47.530796 118.330887,48.620564 116.018539,49.905552   C117.052071,52.112961 118.070992,54.289165 119.230972,56.766640   C121.010666,56.023247 122.609009,55.355606 124.265648,54.663612   C128.635376,59.092857 122.881760,58.870907 121.377281,61.034554   C122.086754,62.433800 122.895210,64.028267 123.851944,65.976387  z"
   id="path10785" />
<path
   fill="#ECECEC"
   opacity="1.000000"
   stroke="none"
   d=" M72.044106,270.064850   C69.979485,271.747742 68.207993,273.212921 66.250137,274.832214   C65.304428,273.763885 64.468506,272.819580 63.397358,271.609558   C70.535179,265.603058 77.466156,259.770630 84.580177,253.784164   C87.163368,256.864624 89.583969,259.751190 92.187004,262.855316   C91.161758,263.703094 90.307892,264.409180 89.170654,265.349579   C87.548218,263.562927 86.022972,261.883301 84.178070,259.851654   C82.327957,261.424622 80.494926,262.983032 78.460823,264.712402   C79.598137,266.337524 80.610992,267.784821 81.768219,269.438385   C81.058090,270.334259 80.360649,271.214081 79.903076,271.791321   C76.796089,271.178802 75.855865,265.335999 72.044106,270.064850  z"
   id="path10787" />
<path
   fill="#EBEBEB"
   opacity="1.000000"
   stroke="none"
   d=" M277.753418,73.518082   C272.888031,78.988182 268.269196,84.187325 263.471161,89.588234   C262.349274,88.823059 261.321228,88.121880 259.843079,87.113708   C264.994690,81.217285 269.964081,75.529434 274.605194,70.217323   C274.102386,67.882133 273.668335,65.866302 273.234314,63.850475   C273.793060,63.612309 274.351776,63.374138 274.910522,63.135967   C278.219055,66.012093 281.527588,68.888214 285.112762,72.004837   C284.191284,73.058861 283.469727,73.884178 282.884399,74.553703   C281.131500,74.084801 279.565735,73.665970 277.753418,73.518082  z"
   id="path10789" />
<path
   fill="#E8E8E8"
   opacity="1.000000"
   stroke="none"
   d=" M91.726273,64.822830   C90.294334,64.332710 89.195137,63.703484 88.041565,63.043129   C97.754387,54.235661 98.989960,53.772747 101.757919,57.442924   C100.810822,58.331635 99.856712,59.226933 98.585892,60.419418   C102.991341,66.660233 107.374664,72.869705 111.921631,79.310997   C110.849579,80.189240 109.877945,80.985214 108.857040,81.821556   C108.340660,81.365829 107.921600,81.112625 107.659317,80.746964   C103.977188,75.613419 100.221397,70.528481 96.695320,65.289192   C95.199440,63.066509 93.861641,62.929893 91.726273,64.822830  z"
   id="path10791" />
<path
   fill="#EAEAEA"
   opacity="1.000000"
   stroke="none"
   d=" M195.961029,324.735565   C196.649261,328.595886 194.606812,328.527832 191.916061,328.109161   C191.205292,320.577576 190.495087,313.051971 189.756607,305.226715   C188.182648,305.131836 186.782043,305.047394 185.381454,304.962952   C185.104630,304.519867 184.827805,304.076813 184.550995,303.633728   C185.656097,302.759430 186.679688,301.266296 187.879135,301.108337   C197.769958,299.805664 197.779846,299.880737 198.513809,303.690308   C197.161926,304.092102 195.786850,304.500793 194.163483,304.983307   C194.762436,311.485138 195.352554,317.891235 195.961029,324.735565  z"
   id="path10793" />
<path
   fill="#ECECEC"
   opacity="1.000000"
   stroke="none"
   d=" M119.464142,296.507324   C116.648262,301.580200 114.041512,306.353851 111.286461,311.399048   C109.930885,310.732727 108.811584,310.182526 107.372093,309.474945   C111.105621,302.582520 114.711311,295.926086 118.455505,289.013977   C116.958870,287.398926 112.729378,286.341614 117.131058,283.187378   C120.654366,285.110138 124.383171,287.145020 128.338318,289.303436   C127.764076,290.495026 127.286156,291.486725 126.650772,292.805145   C125.310493,292.229462 124.032463,291.680481 122.524231,291.032654   C121.553322,292.795166 120.613304,294.501587 119.464142,296.507324  z"
   id="path10795" />
<path
   fill="#EAEAEA"
   opacity="1.000000"
   stroke="none"
   d=" M216.974380,62.784431   C219.665314,54.096645 222.499313,45.788815 225.486725,37.031281   C226.917328,37.522404 228.188034,37.958637 229.720474,38.484722   C227.112152,45.985310 224.615097,53.165955 222.139038,60.286243   C224.410995,61.605843 226.564896,62.856876 228.718796,64.107910   C228.363708,64.938042 228.008606,65.768173 227.653519,66.598305   C224.141495,65.453667 220.629471,64.309029 216.974380,62.784431  z"
   id="path10797" />
<path
   fill="#E8E8E8"
   opacity="1.000000"
   stroke="none"
   d=" M233.652054,66.706421   C232.132568,67.598244 230.813034,68.161530 229.493484,68.724815   C229.181992,68.262817 228.870514,67.800827 228.559021,67.338829   C232.188553,59.083107 235.818085,50.827385 239.573776,42.284687   C240.979919,42.865326 242.117828,43.335209 243.665405,43.974258   C240.315872,51.621094 237.083939,58.999493 233.652054,66.706421  z"
   id="path10799" />
<path
   fill="#E9E9E9"
   opacity="1.000000"
   stroke="none"
   d=" M130.032837,45.986904   C132.688431,52.649734 135.244370,58.948040 137.873642,65.427025   C135.556580,67.518860 133.969742,67.957932 132.632172,64.297119   C130.246399,57.767494 127.694595,51.281265 124.821991,44.954060   C123.383469,41.785572 124.417297,40.762634 127.605759,40.315868   C128.355850,42.026062 129.144516,43.824219 130.032837,45.986904  z"
   id="path10801" />
<path
   fill="#EAEAEA"
   opacity="1.000000"
   stroke="none"
   d=" M245.136810,306.987946   C246.141724,309.124756 246.979248,310.897308 247.816757,312.669891   C247.590958,313.156494 247.365143,313.643097 247.139328,314.129730   C245.709351,313.568329 243.507233,313.408356 242.973267,312.381195   C239.180756,305.085907 235.729538,297.613159 232.188217,290.235718   C234.600494,287.810059 236.095108,287.962189 237.452774,291.002228   C239.808197,296.276428 242.448547,301.423401 245.136810,306.987946  z"
   id="path10803" />
<path
   fill="#ECECEC"
   opacity="1.000000"
   stroke="none"
   d=" M119.085464,75.081223   C117.608658,74.902199 115.896027,74.929703 115.425888,74.179031   C111.043907,67.182373 106.875366,60.052059 101.746826,51.454861   C104.416321,51.856510 106.673508,51.559093 107.198280,52.375389   C111.580894,59.192665 115.661255,66.205185 119.759796,73.201569   C119.982178,73.581184 119.552277,74.342911 119.085464,75.081223  z"
   id="path10805" />
<path
   fill="#E2E2E2"
   opacity="1.000000"
   stroke="none"
   d=" M161.520981,83.952942   C161.804214,81.574951 162.473358,79.184196 163.123245,76.862259   C164.760086,76.862259 167.083939,76.862259 169.392258,76.862259   C170.064957,78.484390 171.014603,80.774345 171.843643,82.773468   C170.386230,83.853302 168.379669,85.340027 166.582321,86.671730   C165.374008,85.965790 163.640442,84.952988 161.520981,83.952942  z"
   id="path10807" />
<path
   fill="#E2E2E2"
   opacity="1.000000"
   stroke="none"
   d=" M196.925598,275.233765   C198.540955,275.758087 199.994339,275.925568 200.952133,276.035950   C200.284668,278.412933 199.593735,280.873474 199.007034,282.962860   C196.860229,283.092926 194.233826,283.252045 192.092346,283.381775   C191.515076,281.425537 190.802643,279.011292 190.023590,276.371277   C192.429123,276.681671 195.046219,275.967407 195.459579,272.053009   C195.894257,272.994324 196.328949,273.935638 196.925598,275.233765  z"
   id="path10809" />
<path
   fill="#E4E4E4"
   opacity="1.000000"
   stroke="none"
   d=" M143.458923,81.845932   C144.740677,84.200310 145.677139,86.559502 146.570740,88.810669   C145.781036,89.802742 144.309998,91.650734 142.785675,93.565674   C141.534164,93.057816 139.178253,92.101799 136.994080,91.215469   C136.868851,89.338043 136.700745,86.817780 136.590607,85.166512   C138.577423,84.156578 140.845535,83.003662 143.458923,81.845932  z"
   id="path10811" />
<path
   fill="#E6E6E6"
   opacity="1.000000"
   stroke="none"
   d=" M139.695618,273.426025   C139.949570,271.526184 139.949570,269.882904 139.949570,268.751404   C142.073929,268.486359 144.478424,268.186371 146.490402,267.935364   C147.369598,269.501526 148.567871,271.636017 149.877136,273.968201   C149.299698,274.168396 147.878281,274.661194 146.226685,275.233765   C146.049652,276.565765 145.857529,278.011383 145.741501,278.884338   C143.435287,277.657806 140.972855,276.348175 138.340851,274.948395   C138.326416,274.964996 138.884048,274.323822 139.695618,273.426025  z"
   id="path10813" />
<path
   fill="#E9E9E9"
   opacity="1.000000"
   stroke="none"
   d=" M241.285446,253.618668   C243.257523,253.888397 244.959579,253.888397 246.182526,253.888397   C247.029984,256.027283 247.984894,258.437408 248.704437,260.253448   C246.891449,261.349609 244.538071,262.772491 242.582077,263.955109   C241.167664,262.661865 239.174118,260.839111 237.963425,259.732117   C238.358215,257.837555 238.721603,255.774948 239.282837,253.767654   C239.360886,253.488434 240.413803,253.481766 241.285446,253.618668  z"
   id="path10815" />
<path
   fill="#E6E6E6"
   opacity="1.000000"
   stroke="none"
   d=" M224.189194,271.216736   C224.761612,272.822357 225.463898,274.079315 225.907242,274.872833   C223.355530,275.606323 220.908356,276.309723 218.673660,276.952057   C217.745575,275.450836 216.412689,273.294861 215.217545,271.361664   C216.194901,270.023712 217.668808,268.006012 219.320892,265.744415   C220.629669,266.627930 222.081314,270.869720 226.101837,267.718628   C225.507568,268.768433 224.913315,269.818268 224.189194,271.216736  z"
   id="path10817" />
<path
   fill="#E7E7E7"
   opacity="1.000000"
   stroke="none"
   d=" M125.211243,256.206451   C125.573578,258.419434 125.935913,260.632446 126.225075,262.398560   C124.705612,263.304993 122.475380,264.635468 120.637314,265.731964   C119.216934,264.442841 117.246613,262.654602 115.419930,260.996704   C116.226181,259.634674 117.564461,257.373840 118.884361,255.144043   C120.016922,255.292755 121.895897,255.539474 124.310822,255.798462   C124.968262,255.942612 125.089752,256.074524 125.211243,256.206451  z"
   id="path10819" />
<path
   fill="#E7E7E7"
   opacity="1.000000"
   stroke="none"
   d=" M191.163849,86.991013   C189.725433,84.832703 188.504807,82.949463 187.271912,81.047279   C187.878159,79.901093 189.011337,77.758621 190.145691,75.613960   C192.048431,75.979950 194.774216,76.504250 197.185608,76.968079   C197.068436,78.626160 196.899445,81.017410 196.747040,83.173988   C195.247147,84.317940 193.314407,85.792015 191.163849,86.991013  z"
   id="path10821" />
<path
   fill="#E9E9E9"
   opacity="1.000000"
   stroke="none"
   d=" M239.427826,103.136040   C238.389420,102.853714 237.243271,102.779892 237.021881,102.288994   C236.334671,100.765320 235.998734,99.083221 235.578094,97.639671   C237.334869,96.569092 239.647629,95.159698 241.393829,94.095573   C242.827957,95.436302 244.728256,97.212822 246.543839,98.910156   C245.727051,100.337547 244.388702,102.676399 243.040314,105.032814   C242.467010,104.706085 241.105072,103.929916 239.427826,103.136040  z"
   id="path10823" />
<path
   fill="#E8E8E8"
   opacity="1.000000"
   stroke="none"
   d=" M223.049561,85.719688   C222.344315,87.808220 221.935959,89.635513 221.618790,91.054771   C219.826813,91.238113 217.609604,91.464958 215.560669,91.674591   C214.682663,90.250214 213.358505,88.101997 212.344177,86.456436   C213.671921,84.997078 215.413635,83.082687 216.856339,81.496971   C218.567474,82.147163 221.036118,83.062172 223.465363,84.071953   C223.595383,84.125999 223.393707,84.977936 223.049561,85.719688  z"
   id="path10825" />
<path
   fill="#E6E6E6"
   opacity="1.000000"
   stroke="none"
   d=" M112.636505,99.664429   C114.891739,98.181389 117.354874,97.025604 119.630554,95.957779   C120.822815,97.101509 122.669792,98.873314 124.399620,100.532730   C123.601135,101.750816 122.426041,103.543411 121.166374,105.465034   C119.659180,105.465034 117.555649,105.465034 116.081490,105.465034   C115.006279,103.647041 113.925346,101.819359 112.636505,99.664429  z"
   id="path10827" />
<path
   fill="#EDEDED"
   opacity="1.000000"
   stroke="none"
   d=" M164.731049,283.091064   C164.738281,280.973541 165.133682,278.966888 165.667603,276.257324   C166.723557,275.636902 168.864471,274.378967 170.285187,273.544220   C171.755692,275.104675 173.451309,276.904022 175.049072,278.599518   C174.085876,279.874603 172.614075,281.822937 171.211166,283.680084   C169.600342,283.553650 167.359787,283.377777 164.731049,283.091064  z"
   id="path10829" />
<path
   fill="#D2D2D2"
   opacity="1.000000"
   stroke="none"
   d=" M312.939270,129.973114   C314.238678,130.069214 315.538055,130.165314 316.837433,130.261414   C316.108459,131.130966 315.379456,132.000519 314.284180,132.497284   C313.591705,131.407379 313.265503,130.690247 312.939270,129.973114  z"
   id="path10831" />
<path
   fill="#F9F9F9"
   opacity="1.000000"
   stroke="none"
   d=" M312.841980,130.340820   C313.265503,130.690247 313.591705,131.407379 313.935059,132.440948   C313.549683,132.074432 313.147186,131.391495 312.841980,130.340820  z"
   id="path10833" />
<path
   fill="#E7E7E7"
   opacity="1.000000"
   stroke="none"
   d=" M124.675156,255.603577   C124.892654,255.279022 125.281769,255.161621 125.670876,255.044220   C125.689339,255.334686 125.707802,255.625183 125.468750,256.061066   C125.089752,256.074524 124.968262,255.942612 124.675156,255.603577  z"
   id="path10835" />
<path
   fill="#0B0B0B"
   opacity="1.000000"
   stroke="none"
   d=" M124.008118,141.273712   C124.594872,139.561874 125.184784,138.319443 125.774696,137.077011   C126.592796,138.264877 128.074356,139.428864 128.118134,140.644608   C128.350327,147.093750 128.346298,153.560257 128.121765,160.010208   C128.071503,161.453690 126.809868,162.855011 126.105934,164.275757   C125.407715,164.090134 124.709496,163.904526 124.011276,163.718903   C124.011276,156.393646 124.011276,149.068390 124.008118,141.273712  z"
   id="path10837" />
<path
   fill="#222222"
   opacity="1.000000"
   stroke="none"
   d=" M237.905273,174.999039   C237.902435,180.652191 238.079926,185.816223 237.777542,190.951996   C237.695801,192.340134 236.160477,193.642670 235.292358,194.984497   C234.589539,193.651566 233.287552,192.324310 233.274902,190.984863   C233.116226,174.197144 233.075455,157.406967 233.241013,140.619751   C233.255951,139.105637 234.910965,137.607681 235.804291,136.102203   C236.514557,137.597015 237.818680,139.083221 237.840485,140.588013   C238.004227,151.889709 237.915192,163.195084 237.905273,174.999039  z"
   id="path10839" />
<path
   fill="#1E1E1E"
   opacity="1.000000"
   stroke="none"
   d=" M160.971283,160.848297   C161.283813,157.004593 161.564972,153.620956 161.846130,150.237320   C162.194656,150.244186 162.543198,150.251053 162.891724,150.257919   C163.523972,158.022629 164.156235,165.787338 164.823212,173.978455   C163.282715,174.099945 161.907059,174.208420 159.954300,174.362427   C160.303452,169.738266 160.621689,165.523315 160.971283,160.848297  z"
   id="path10841" />
<path
   fill="#060606"
   opacity="1.000000"
   stroke="none"
   d=" M253.571106,290.761414   C253.609650,291.039246 253.332855,291.486389 252.861694,291.635864   C252.863464,291.202362 253.059616,291.066498 253.571106,290.761414  z"
   id="path10843" />
<path
   fill="#141414"
   opacity="1.000000"
   stroke="none"
   d=" M300.779907,97.454788   C297.766327,102.943298 295.846954,103.403328 292.715149,99.247299   C295.744598,99.306252 296.505951,93.152092 300.779907,97.454788  z"
   id="path10845" />
<path
   fill="#141414"
   opacity="1.000000"
   stroke="none"
   d=" M155.469452,51.498993   C154.551285,46.550648 153.751816,42.017399 152.937088,37.397625   C156.085068,36.222240 157.593445,37.049107 158.052139,40.122818   C158.591431,43.736858 159.600677,47.296421 159.910263,50.921951   C160.048355,52.539284 158.975296,54.260033 158.451935,55.933846   C157.497345,54.593929 156.542755,53.254013 155.469452,51.498993  z"
   id="path10847" />
<path
   fill="#111111"
   opacity="1.000000"
   stroke="none"
   d=" M280.559509,93.584976   C279.411774,94.566612 278.626007,95.560883 277.606293,95.965157   C276.746887,96.305878 274.891724,96.242661 274.745087,95.865433   C274.355011,94.861992 274.159271,93.097870 274.752319,92.510071   C278.264832,89.028664 281.932465,85.683060 285.775208,82.572556   C286.556641,81.940010 288.309387,82.507385 289.614380,82.521591   C289.374237,83.690292 289.523468,85.233902 288.824005,85.960312   C286.311035,88.570129 283.511383,90.903839 280.559509,93.584976  z"
   id="path10849" />
<path
   fill="#1A1A1A"
   opacity="1.000000"
   stroke="none"
   d=" M152.999878,304.924133   C152.229721,308.049286 151.674408,311.031311 147.340729,308.696930   C147.990295,306.176392 148.617844,303.741333 149.660568,299.695190   C151.319046,302.059082 152.187653,303.297119 152.999878,304.924133  z"
   id="path10851" />
<path
   fill="#1A1A1A"
   opacity="1.000000"
   stroke="none"
   d=" M205.996552,304.251404   C207.142227,303.435577 209.292542,302.533722 209.370880,302.687469   C210.235382,304.384308 211.219116,306.243652 211.225449,308.062256   C211.228714,309.001740 209.341599,309.947784 207.781464,311.372131   C207.020691,308.439667 206.529831,306.547607 205.996552,304.251404  z"
   id="path10853" />
<path
   fill="#111111"
   opacity="1.000000"
   stroke="none"
   d=" M86.627502,78.298019   C85.055138,76.580750 83.748215,75.114761 81.926231,73.071022   C83.494919,72.446342 85.265678,71.138092 85.997536,71.574013   C87.570938,72.511185 88.763062,74.258606 89.707092,75.905975   C89.855293,76.164612 87.884148,77.637733 86.627502,78.298019  z"
   id="path10855" />
<path
   fill="#111111"
   opacity="1.000000"
   stroke="none"
   d=" M277.200623,271.799103   C275.256958,269.981659 273.567078,268.413269 271.878387,266.845978   C273.618744,263.435059 275.636169,263.701172 277.628204,266.128357   C280.948090,270.173462 287.147766,272.392792 287.916870,278.091858   C287.208038,278.601715 286.499176,279.111572 285.790344,279.621429   C283.011719,277.097015 280.233093,274.572601 277.200623,271.799103  z"
   id="path10857" />
<path
   fill="#131313"
   opacity="1.000000"
   stroke="none"
   d=" M132.623016,309.591797   C132.009720,311.006714 131.825699,312.328552 131.073410,313.085999   C130.204544,313.960846 128.834778,314.338226 127.682518,314.931610   C127.402550,313.674713 126.585831,312.238007 126.936119,311.192200   C128.404251,306.808868 130.088257,302.481445 132.011673,298.279297   C132.457779,297.304626 134.157364,296.903717 135.280182,296.238831   C135.645920,297.485718 136.572372,298.891663 136.272263,299.949677   C135.372269,303.122467 133.993195,306.159332 132.623016,309.591797  z"
   id="path10859" />
<path
   fill="#1E1E1E"
   opacity="1.000000"
   stroke="none"
   d=" M215.078918,44.158226   C213.643555,45.214027 212.277679,45.871445 209.731201,47.097115   C210.727020,42.996288 211.324112,40.537403 211.940323,37.999821   C216.922516,38.162743 216.087997,40.934528 215.078918,44.158226  z"
   id="path10861" />
<path
   fill="#1E1E1E"
   opacity="1.000000"
   stroke="none"
   d=" M194.141510,42.386406   C194.400467,39.747047 194.715057,37.498116 195.032867,35.226265   C199.603409,34.866508 199.321609,37.651058 198.942078,40.369946   C198.527145,43.342484 197.085266,44.551659 194.141510,42.386406  z"
   id="path10863" />
</svg>
