<?xml version="1.0" encoding="UTF-8" standalone="no"?>
<!-- Created with Inkscape (http://www.inkscape.org/) -->

<svg
   width="67.925125mm"
   height="14.843124mm"
   viewBox="0 0 67.925125 14.843124"
   version="1.1"
   id="svg32071"
   inkscape:version="1.2.2 (b0a84865, 2022-12-01)"
   sodipodi:docname="logo-dark.svg"
   xmlns:inkscape="http://www.inkscape.org/namespaces/inkscape"
   xmlns:sodipodi="http://sodipodi.sourceforge.net/DTD/sodipodi-0.dtd"
   xmlns="http://www.w3.org/2000/svg"
   xmlns:svg="http://www.w3.org/2000/svg">
  <sodipodi:namedview
     id="namedview32073"
     pagecolor="#ffffff"
     bordercolor="#000000"
     borderopacity="0.25"
     inkscape:showpageshadow="2"
     inkscape:pageopacity="0.0"
     inkscape:pagecheckerboard="0"
     inkscape:deskcolor="#d1d1d1"
     inkscape:document-units="mm"
     showgrid="false"
     inkscape:zoom="0.914906"
     inkscape:cx="-77.057096"
     inkscape:cy="213.68315"
     inkscape:window-width="1390"
     inkscape:window-height="1205"
     inkscape:window-x="484"
     inkscape:window-y="63"
     inkscape:window-maximized="0"
     inkscape:current-layer="layer1" />
  <defs
     id="defs32068" />
  <g
     inkscape:label="Layer 1"
     inkscape:groupmode="layer"
     id="layer1"
     transform="translate(-79.111442,-92.060422)">
    <g
       id="g6734"
       transform="matrix(0.35277777,0,0,-0.35277777,146.04279,100.84988)">
      <path
         d="m 0,0 c 0.29,0.327 0.511,0.72 0.626,1.164 l 0.92,3.542 c 0.221,0.849 0.036,1.753 -0.502,2.447 -0.053,0.069 -0.11,0.136 -0.17,0.2 l 0.371,2.078 c 0.038,0.217 0.051,0.435 0.04,0.651 0.302,0.601 0.384,1.296 0.218,1.959 l -0.969,3.894 c -0.315,1.263 -1.449,2.15 -2.751,2.15 h -11.538 c -0.211,0 -0.415,-0.027 -0.614,-0.071 -0.182,0.037 -0.365,0.071 -0.554,0.071 h -5.968 c -1.137,0 -2.164,-0.679 -2.609,-1.726 l -0.564,-1.327 -0.556,1.32 c -0.443,1.05 -1.472,1.733 -2.612,1.733 h -5.967 c -0.19,0 -0.373,-0.034 -0.555,-0.071 -0.198,0.044 -0.402,0.071 -0.614,0.071 h -5.918 c -0.2,0 -0.396,-0.023 -0.585,-0.062 -0.16,0.028 -0.319,0.062 -0.484,0.062 h -14.348 c -1.081,0 -2.067,-0.615 -2.544,-1.584 l -0.523,-1.065 -0.488,1.029 c -0.469,0.989 -1.466,1.62 -2.561,1.62 h -5.52 c -1.092,0 -2.087,-0.627 -2.558,-1.613 l -2.167,-4.534 v 3.312 c 0,1.566 -1.269,2.835 -2.834,2.835 h -5.396 c -0.801,0 -1.523,-0.332 -2.039,-0.865 -0.531,0.55 -1.266,0.865 -2.039,0.865 h -5.247 c -0.719,0 -1.369,-0.277 -1.868,-0.719 -0.87,0.469 -1.896,0.719 -3.08,0.719 h -11.662 c -0.516,0 -0.993,-0.149 -1.41,-0.39 -0.423,0.246 -0.909,0.39 -1.424,0.39 h -11.538 c -0.201,0 -0.396,-0.022 -0.585,-0.062 -0.16,0.028 -0.319,0.062 -0.484,0.062 h -14.348 c -1.08,0 -2.066,-0.615 -2.543,-1.584 l -0.45,-0.913 c -0.168,1.404 -1.35,2.497 -2.8,2.497 h -5.918 c -1.565,0 -2.834,-1.269 -2.834,-2.835 v -3.141 l -5.449,10.297 c -0.491,0.928 -1.455,1.509 -2.506,1.509 h -9.562 c -1.057,0 -2.026,-0.588 -2.514,-1.526 l -17.813,-34.218 c -0.457,-0.879 -0.423,-1.932 0.09,-2.779 0.514,-0.846 1.431,-1.364 2.422,-1.365 0,0 184.877,-0.187 184.877,-0.187 0.752,0 1.472,0.297 2.004,0.829 0.532,0.531 0.831,1.253 0.831,2.005 V -2.638 C 1.817,-1.433 1.061,-0.41 0,0 Z"
         style="fill:none;stroke:#231f20;stroke-width:2;stroke-linecap:butt;stroke-linejoin:miter;stroke-miterlimit:10;stroke-dasharray:none;stroke-opacity:1"
         id="path6736" />
    </g>
    <g
       id="g6738"
       transform="matrix(0.35277777,0,0,-0.35277777,93.927282,95.469916)">
      <path
         d="m 0,0 h 5.918 v -9.831 h 6.838 l -0.919,-3.542 H 0 Z"
         style="fill:#231f20;fill-opacity:1;fill-rule:nonzero;stroke:none"
         id="path6740" />
    </g>
    <g
       id="g6742"
       transform="matrix(0.35277777,0,0,-0.35277777,98.058768,95.469916)">
      <path
         d="m 0,0 h 14.348 l -1.89,-3.894 H 8.927 v -9.479 H 3.133 v 9.479 h -5.047 z"
         style="fill:#231f20;fill-opacity:1;fill-rule:nonzero;stroke:none"
         id="path6744" />
    </g>
    <g
       id="g6746"
       transform="matrix(0.35277777,0,0,-0.35277777,103.49733,95.469916)">
      <path
         d="m 0,0 h 11.538 l 0.97,-3.894 H 5.744 v -1.427 h 6.465 L 11.612,-8.668 H 5.744 v -1.163 h 6.813 l -0.92,-3.542 H 0 Z"
         style="fill:#231f20;fill-opacity:1;fill-rule:nonzero;stroke:none"
         id="path6748" />
    </g>
    <g
       id="g6750"
       transform="matrix(0.35277777,0,0,-0.35277777,111.66428,96.787647)">
      <path
         d="m 0,0 c 0,0.059 -0.013,0.105 -0.037,0.141 -0.026,0.035 -0.097,0.053 -0.212,0.053 h -2.884 v -2.485 h 2.884 c 0.115,0 0.186,0.018 0.212,0.053 C -0.013,-2.202 0,-2.156 0,-2.097 Z M -8.778,3.735 H 2.884 c 0.845,0 1.508,-0.173 1.99,-0.52 0.48,-0.346 0.72,-0.754 0.72,-1.224 v -4.705 c 0,-0.493 -0.232,-0.857 -0.696,-1.092 0.547,-0.223 0.821,-0.617 0.821,-1.18 v -4.652 h -5.57 v 3.718 c 0,0.129 -0.091,0.194 -0.273,0.194 h -3.009 v -3.912 h -5.645 z"
         style="fill:#231f20;fill-opacity:1;fill-rule:nonzero;stroke:none"
         id="path6752" />
    </g>
    <g
       id="g6754"
       transform="matrix(0.35277777,0,0,-0.35277777,114.4273,95.469916)">
      <path
         d="M 0,0 H 5.247 L 9.325,-5.092 V 0 H 14.72 V -13.373 H 9.325 v 0.423 c -0.382,0.446 -0.726,0.845 -1.032,1.198 -0.307,0.352 -0.606,0.698 -0.895,1.04 -0.29,0.34 -0.593,0.686 -0.907,1.039 -0.316,0.352 -0.664,0.751 -1.046,1.198 v -4.898 H 0 Z"
         style="fill:#231f20;fill-opacity:1;fill-rule:nonzero;stroke:none"
         id="path6756" />
    </g>
    <g
       id="g6758"
       transform="matrix(0.35277777,0,0,-0.35277777,123.25172,97.552222)">
      <path
         d="m 0,0 -1.317,-2.995 h 2.635 z m -2.735,5.903 h 5.52 L 9.126,-7.47 H 3.233 L 2.711,-6.255 H -2.735 L -3.233,-7.47 h -5.892 z"
         style="fill:#231f20;fill-opacity:1;fill-rule:nonzero;stroke:none"
         id="path6760" />
    </g>
    <g
       id="g6762"
       transform="matrix(0.35277777,0,0,-0.35277777,126.39201,95.469916)">
      <path
         d="m 0,0 h 14.348 l -1.89,-3.894 H 8.927 v -9.479 H 3.133 v 9.479 h -5.047 z"
         style="fill:#231f20;fill-opacity:1;fill-rule:nonzero;stroke:none"
         id="path6764" />
    </g>
    <path
       d="m 131.83085,95.470022 h 2.08774 v 4.717698 h -2.08774 z"
       style="fill:#231f20;fill-opacity:1;fill-rule:nonzero;stroke:none;stroke-width:0.352778"
       id="path6766" />
    <g
       id="g6768"
       transform="matrix(0.35277777,0,0,-0.35277777,134.33088,95.469916)">
      <path
         d="M 0,0 H 5.967 L 9.125,-7.488 12.308,0 h 5.968 L 11.885,-13.373 H 6.39 Z"
         style="fill:#231f20;fill-opacity:1;fill-rule:nonzero;stroke:none"
         id="path6770" />
    </g>
    <g
       id="g6772"
       transform="matrix(0.35277777,0,0,-0.35277777,141.19037,95.469916)">
      <path
         d="m 0,0 h 11.538 l 0.97,-3.894 H 5.744 v -1.427 h 6.465 L 11.612,-8.668 H 5.744 v -1.163 h 6.813 l -0.92,-3.542 H 0 Z"
         style="fill:#231f20;fill-opacity:1;fill-rule:nonzero;stroke:none"
         id="path6774" />
    </g>
    <g
       id="g6776"
       transform="matrix(0.35277777,0,0,-0.35277777,119.69868,102.90891)">
      <path
         d="M 0,0 H -1.574 C -1.647,0 -1.691,-0.009 -1.707,-0.028 -1.722,-0.047 -1.73,-0.072 -1.73,-0.104 v -3.155 c 0,-0.032 0.008,-0.057 0.023,-0.076 0.016,-0.019 0.06,-0.028 0.133,-0.028 H 0 c 0.073,0 0.117,0.009 0.132,0.028 0.016,0.019 0.024,0.044 0.024,0.076 v 3.155 c 0,0.032 -0.008,0.057 -0.024,0.076 C 0.117,-0.009 0.073,0 0,0"
         style="fill:#231f20;fill-opacity:1;fill-rule:nonzero;stroke:none"
         id="path6778" />
    </g>
    <g
       id="g6780"
       transform="matrix(0.35277777,0,0,-0.35277777,95.968348,102.9022)">
      <path
         d="M 0,0 H -1.808 V -1.332 H 0 c 0.072,0 0.117,0.009 0.132,0.028 0.016,0.019 0.024,0.044 0.024,0.076 v 1.124 c 0,0.032 -0.008,0.057 -0.024,0.076 C 0.117,-0.009 0.072,0 0,0"
         style="fill:#231f20;fill-opacity:1;fill-rule:nonzero;stroke:none"
         id="path6782" />
    </g>
    <g
       id="g6784"
       transform="matrix(0.35277777,0,0,-0.35277777,106.84932,102.9022)">
      <path
         d="M 0,0 H -1.808 V -1.332 H 0 c 0.072,0 0.117,0.009 0.132,0.028 0.016,0.019 0.024,0.044 0.024,0.076 v 1.124 c 0,0.032 -0.008,0.057 -0.024,0.076 C 0.117,-0.009 0.072,0 0,0"
         style="fill:#231f20;fill-opacity:1;fill-rule:nonzero;stroke:none"
         id="path6786" />
    </g>
    <g
       id="g6788"
       transform="matrix(0.35277777,0,0,-0.35277777,123.00305,103.91538)">
      <path
         d="M 0,0 H 1.652 L 0.826,1.606 Z"
         style="fill:#231f20;fill-opacity:1;fill-rule:nonzero;stroke:none"
         id="path6790" />
    </g>
    <g
       id="g6792"
       transform="matrix(0.35277777,0,0,-0.35277777,102.39568,103.91538)">
      <path
         d="M 0,0 H 1.652 L 0.826,1.606 Z"
         style="fill:#231f20;fill-opacity:1;fill-rule:nonzero;stroke:none"
         id="path6794" />
    </g>
    <g
       id="g6796"
       transform="matrix(0.35277777,0,0,-0.35277777,140.83949,104.40874)">
      <path
         d="m 0,0 c 0,-0.157 -0.05,-0.299 -0.148,-0.425 -0.099,-0.126 -0.231,-0.231 -0.398,-0.316 -0.166,-0.086 -0.364,-0.15 -0.592,-0.194 -0.229,-0.044 -0.467,-0.066 -0.717,-0.066 h -5.798 l -0.966,1.899 h 4.878 c 0.073,0 0.117,0.009 0.133,0.028 0.015,0.019 0.023,0.044 0.023,0.075 v 0.426 c 0,0.031 -0.008,0.055 -0.023,0.071 -0.016,0.015 -0.06,0.023 -0.133,0.023 h -3.366 c -0.166,0 -0.335,0.022 -0.507,0.066 -0.171,0.044 -0.327,0.107 -0.468,0.189 -0.14,0.082 -0.254,0.18 -0.342,0.293 -0.089,0.114 -0.133,0.24 -0.133,0.378 v 2.721 c 0,0.158 0.052,0.299 0.156,0.425 0.104,0.126 0.242,0.232 0.413,0.317 0.172,0.085 0.369,0.149 0.592,0.194 0.224,0.043 0.455,0.065 0.694,0.065 h 5.845 l 0.826,-2.087 h -4.754 c -0.073,0 -0.117,-0.01 -0.132,-0.029 C -4.933,4.034 -4.941,4.009 -4.941,3.978 V 3.42 c 0,-0.031 0.005,-0.056 0.016,-0.075 0.01,-0.019 0.051,-0.029 0.124,-0.029 h 3.164 c 0.26,0 0.491,-0.026 0.694,-0.08 0.203,-0.053 0.374,-0.124 0.514,-0.213 0.14,-0.088 0.247,-0.187 0.32,-0.297 C -0.037,2.616 0,2.5 0,2.381 Z m -9.772,-1.001 h -7.497 c -0.405,0 -0.756,0.079 -1.052,0.236 -0.296,0.157 -0.445,0.378 -0.445,0.661 v 5.376 c 0,0.132 0.039,0.252 0.118,0.359 0.077,0.107 0.187,0.202 0.327,0.284 0.14,0.081 0.299,0.144 0.475,0.189 0.177,0.043 0.369,0.065 0.577,0.065 h 5.938 l 0.873,-2.087 h -4.364 c -0.053,0 -0.094,-0.005 -0.125,-0.015 -0.031,-0.009 -0.047,-0.036 -0.047,-0.08 V 1.011 c 0,-0.032 0.008,-0.056 0.024,-0.075 0.015,-0.019 0.059,-0.029 0.132,-0.029 h 1.496 v 2.201 h 3.57 z m -10.365,0 h -3.382 v 0.227 c -0.239,0.239 -0.455,0.453 -0.647,0.642 -0.192,0.189 -0.379,0.375 -0.561,0.557 -0.182,0.183 -0.372,0.369 -0.569,0.558 -0.197,0.189 -0.415,0.403 -0.654,0.642 v -2.626 h -3.414 v 7.17 h 3.289 l 2.556,-2.73 v 2.73 h 3.382 z m -10.645,0 h -3.709 V 6.17 h 3.709 z m -5.564,5.083 h -2.213 v -5.083 h -3.631 v 5.083 h -3.164 l 1.2,2.087 h 8.993 z m -11.362,-5.083 -0.327,0.651 h -3.413 l -0.312,-0.651 h -3.694 l 4.006,7.17 h 3.46 l 3.974,-7.17 z m -8.291,0.963 c 0,-0.145 -0.047,-0.277 -0.141,-0.397 -0.093,-0.119 -0.22,-0.221 -0.381,-0.306 -0.162,-0.086 -0.349,-0.15 -0.562,-0.194 -0.212,-0.044 -0.433,-0.066 -0.662,-0.066 h -5.953 c -0.24,0 -0.463,0.022 -0.671,0.066 -0.208,0.044 -0.389,0.108 -0.545,0.194 -0.156,0.085 -0.281,0.187 -0.374,0.306 -0.094,0.12 -0.141,0.252 -0.141,0.397 v 5.253 c 0,0.126 0.045,0.247 0.133,0.364 0.088,0.116 0.205,0.219 0.351,0.307 0.145,0.088 0.319,0.157 0.522,0.208 0.202,0.051 0.418,0.075 0.647,0.075 h 6.093 c 0.229,0 0.445,-0.024 0.647,-0.075 0.203,-0.051 0.382,-0.118 0.538,-0.203 0.156,-0.085 0.278,-0.186 0.366,-0.303 0.089,-0.116 0.133,-0.237 0.133,-0.363 z m -11.456,-0.963 h -5.751 c -0.416,0 -0.766,0.082 -1.052,0.245 -0.285,0.164 -0.429,0.381 -0.429,0.652 v 5.395 c 0,0.246 0.144,0.454 0.429,0.624 0.286,0.169 0.636,0.254 1.052,0.254 h 5.767 l 0.888,-2.087 h -4.239 c -0.073,0 -0.117,-0.01 -0.132,-0.029 -0.016,-0.019 -0.024,-0.044 -0.024,-0.075 V 1.001 c 0,-0.031 0.008,-0.056 0.024,-0.075 0.015,-0.019 0.059,-0.028 0.132,-0.028 h 4.302 z m -12.499,0 h -3.413 v 2.437 c -0.364,-0.422 -0.749,-0.858 -1.154,-1.308 -0.405,-0.451 -0.774,-0.874 -1.106,-1.271 l -2.229,2.589 v -2.447 h -3.429 v 7.17 h 3.866 l 1.792,-2.409 c 0.301,0.397 0.607,0.8 0.919,1.21 0.312,0.409 0.613,0.809 0.904,1.199 h 3.85 z m -12.655,0 h -3.492 v 1.993 c 0,0.07 -0.057,0.104 -0.171,0.104 h -1.886 v -2.097 h -3.538 v 7.17 h 7.31 c 0.53,0 0.945,-0.092 1.246,-0.278 0.302,-0.186 0.452,-0.405 0.452,-0.657 V 2.712 c 0,-0.265 -0.145,-0.46 -0.436,-0.586 0.343,-0.12 0.515,-0.331 0.515,-0.633 z m -13.513,0 -0.328,0.651 h -3.413 l -0.311,-0.651 h -3.694 l 4.005,7.17 h 3.46 l 3.975,-7.17 z m -8.712,0 h -7.295 v 7.17 h 7.232 l 0.608,-2.087 h -4.239 V 3.316 h 4.052 l -0.374,-1.795 h -3.678 V 0.898 h 4.27 z m -8.619,0 h -3.491 v 1.993 c 0,0.07 -0.058,0.104 -0.172,0.104 h -1.886 v -2.097 h -3.538 v 7.17 h 7.31 c 0.53,0 0.945,-0.092 1.247,-0.278 0.301,-0.186 0.452,-0.405 0.452,-0.657 V 2.712 c 0,-0.265 -0.146,-0.46 -0.437,-0.586 0.343,-0.12 0.515,-0.331 0.515,-0.633 z m -10.505,0 h -3.709 V 6.17 h 3.709 z m -5.003,4.317 -0.39,-1.795 h -3.678 v -2.522 h -3.616 v 7.17 h 7.248 l 0.623,-2.087 h -4.255 V 3.316 Z m -10.432,22.79 h 1.312 l 3.938,-7.5 h -9.094 z m -9.281,-18.563 3.281,6.422 h 13.406 l 1.781,-3.703 h 7.5 l -11.062,20.906 h -9.563 L -171.143,-3.05 13.732,-3.238 V 7.45 Z"
         style="fill:#231f20;fill-opacity:1;fill-rule:nonzero;stroke:none"
         id="path6798" />
    </g>
  </g>
</svg>
